<svg width="31" height="35" viewBox="0 0 31 35" fill="none" xmlns="http://www.w3.org/2000/svg">
<path d="M18.7923 23.0352C19.6932 23.4016 20.5673 23.6404 21.3203 24.085C23.5377 25.3951 24.6571 27.4025 24.73 29.9691C24.7707 31.4131 24.7375 32.8592 24.7375 34.3332H22.624C22.6154 34.1629 22.6004 33.9915 22.5993 33.8201C22.5972 32.5143 22.6026 31.2085 22.5961 29.9016C22.5854 27.7689 21.0354 25.8396 18.9551 25.3619C18.5738 25.274 18.2599 25.2955 17.976 25.6725C17.5261 26.2713 16.9798 26.7962 16.5063 27.3789C16.3649 27.5535 16.2664 27.8171 16.2621 28.0409C16.2375 29.185 16.2514 30.329 16.2514 31.5191H14.1165C14.1165 30.3901 14.1369 29.2685 14.1026 28.1481C14.094 27.8556 13.9762 27.5214 13.8005 27.29C13.3474 26.6923 12.8503 26.1256 12.3329 25.5825C12.1915 25.4336 11.9098 25.3244 11.7052 25.3437C10.0084 25.4979 8.31272 27.0554 7.91102 28.8186C7.82104 29.215 7.78033 29.6295 7.77605 30.0366C7.75998 31.4495 7.76962 32.8613 7.76962 34.3193H5.62936C5.62936 34.1339 5.62614 33.9433 5.62936 33.7537C5.66364 32.1469 5.59939 30.5293 5.75792 28.9354C6.02358 26.2649 8.24845 23.9125 10.8868 23.3191C11.0946 23.272 11.3003 23.2216 11.5703 23.1573C11.5703 22.5917 11.5885 22.0229 11.5574 21.4563C11.5488 21.3106 11.4074 21.1467 11.2864 21.0374C9.92917 19.8173 9.16004 18.3294 9.16647 16.4763C9.16968 15.6354 9.15255 14.7945 9.17183 13.9536C9.17933 13.6301 9.10007 13.4137 8.78407 13.2798C8.53983 13.1769 8.31702 13.0195 8.08779 12.8824C6.93196 12.1914 6.79911 10.6993 7.84996 9.87229C8.90188 9.04318 9.95487 8.20657 11.0689 7.46637C12.876 6.26663 14.8363 6.16272 16.8556 6.87936C19.4896 7.81344 21.044 9.6302 21.36 12.441C21.3942 12.741 21.3825 13.0484 21.3685 13.3516C21.3171 14.4195 21.2261 15.4865 21.2046 16.5544C21.1693 18.3005 20.4816 19.7413 19.2079 20.8982C18.8951 21.182 18.7559 21.4498 18.7859 21.858C18.8148 22.2672 18.7923 22.6796 18.7923 23.0352ZM18.0082 19.1178C17.9857 19.0471 17.9632 18.9754 17.9418 18.9047C17.5186 19.0332 17.0837 19.1307 16.6756 19.2989C16.0704 19.5474 15.3698 19.4285 14.9595 18.9539C14.6264 18.5683 14.5964 18.0274 14.8856 17.6192C15.2434 17.1147 16.0125 16.8276 16.5545 17.1661C17.2112 17.5764 17.886 17.4521 18.5673 17.4928C18.8791 17.5121 19.0376 17.4018 19.044 17.0793C19.059 16.4013 19.104 15.7221 19.0879 15.0441C19.0837 14.8727 18.9337 14.6413 18.7826 14.5481C18.1753 14.171 17.5101 14.1239 16.8266 14.3306C15.6708 14.6809 14.4903 14.832 13.2874 14.7248C12.6243 14.6659 11.9645 14.5545 11.1407 14.4453C11.2725 15.6032 11.2564 16.7505 11.5595 17.8067C11.958 19.196 13.0667 20.0176 14.4743 20.2683C15.824 20.5093 17.0452 20.1419 18.0082 19.1168V19.1178ZM9.51568 11.2541C11.085 12.2011 12.6318 12.8481 14.4304 12.6049C15.9997 12.3928 17.5443 11.7855 19.2111 12.3918C19.1822 12.1625 19.1779 12.0233 19.1458 11.8904C18.4667 9.15352 14.6853 7.64205 12.3083 9.18887C11.3689 9.79945 10.5012 10.5193 9.51568 11.2531V11.2541ZM13.7673 22.3871C13.2263 23.9061 14.3736 24.6613 15.1813 25.5965C16.1186 24.6763 17.1223 23.8365 16.6124 22.3871H13.7673Z" fill="white"/>
<path d="M27.6945 23.1338C27.0785 23.5044 26.5022 23.8515 25.8788 24.2275C25.2639 23.1959 24.6448 22.2179 24.1017 21.1992C23.9753 20.9625 24.0342 20.564 24.1327 20.2833C24.3845 19.5624 24.724 18.8726 24.9918 18.1559C25.174 17.6664 25.5146 17.4104 25.9977 17.2968C26.6051 17.1544 27.2092 16.9969 27.8198 16.8716C28.1466 16.8041 28.3019 16.6766 28.2858 16.3081C28.2547 15.6118 28.2601 14.9123 28.2847 14.215C28.2965 13.8786 28.1787 13.7533 27.852 13.6869C27.2071 13.5573 26.5762 13.3537 25.9324 13.2198C25.4364 13.1159 25.1697 12.816 24.9972 12.3661C24.7369 11.6848 24.4745 11.0024 24.1681 10.3415C23.9678 9.90982 23.9624 9.5274 24.2088 9.1257C24.6287 8.44121 25.0401 7.74921 25.4439 7.07971C24.7348 6.37807 24.0406 5.69143 23.3283 4.98551C22.7188 5.35615 22.0568 5.74606 21.4087 6.15848C20.9577 6.44449 20.5303 6.45306 20.0472 6.22061C19.4227 5.9196 18.7821 5.64537 18.1287 5.41613C17.6188 5.23724 17.3328 4.93195 17.2203 4.40492C17.0596 3.65722 16.8571 2.91916 16.6675 2.15861H13.7346C13.5386 2.93523 13.3286 3.70435 13.1551 4.48097C13.0554 4.92659 12.8069 5.20082 12.3924 5.36579C11.665 5.65501 10.9591 6.01279 10.2136 6.23667C9.86327 6.34165 9.38873 6.30844 9.05987 6.15098C8.35502 5.81462 7.70909 5.35829 7.0578 4.96194C6.37223 5.65608 5.69844 6.33737 4.96467 7.07971C5.3096 7.65494 5.68024 8.31909 6.09586 8.95324C6.42794 9.45992 6.42794 9.92375 6.15478 10.4594C5.86449 11.0282 5.63417 11.6312 5.41993 12.2343C5.2389 12.7464 4.95931 13.0913 4.39907 13.2113C3.6353 13.3741 2.88227 13.584 2.11422 13.7758V16.7152C2.8662 16.9058 3.60103 17.1158 4.34658 17.2722C4.87468 17.3836 5.19285 17.6696 5.37924 18.1656C5.63632 18.8479 5.90841 19.526 6.2062 20.1923C6.37973 20.5801 6.42901 20.9378 6.20191 21.3128C5.63096 22.2597 5.06537 23.2088 4.46871 24.205C3.8667 23.8429 3.29147 23.498 2.65196 23.1135C3.04188 22.4654 3.4018 21.8344 3.79707 21.226C4.01131 20.8961 4.0038 20.6251 3.89132 20.2394C3.66316 19.4553 3.22824 19.0611 2.41306 18.9765C1.88817 18.9218 1.38042 18.7151 0.860889 18.5919C0.288867 18.4559 0.0092855 18.0863 0.0060719 17.5186C-0.00249772 15.9975 -0.00249458 14.4764 0.00928864 12.9552C0.0135734 12.3854 0.31031 12.0308 0.880189 11.898C1.57433 11.7373 2.25881 11.538 2.95509 11.3881C3.31395 11.3099 3.49391 11.1342 3.68244 10.8011C4.12485 10.0223 4.01453 9.38493 3.47892 8.71758C3.18006 8.3448 2.96796 7.90132 2.72801 7.48355C2.40986 6.92974 2.42914 6.50662 2.85762 6.06635C3.91811 4.97694 4.9936 3.90145 6.07659 2.83454C6.46115 2.45533 6.95068 2.42855 7.45628 2.72635C8.08722 3.09698 8.71709 3.47083 9.32981 3.87146C9.61368 4.05678 9.84078 4.01393 10.1632 3.94752C11.1294 3.74934 11.4015 3.08841 11.5311 2.24645C11.604 1.77298 11.7422 1.30915 11.8643 0.844245C12.0036 0.311858 12.3624 0.0140639 12.9066 0.00977906C14.4277 -0.00414656 15.9488 -0.00200413 17.4699 0.00870788C18.013 0.0129927 18.3793 0.284007 18.5164 0.827106C18.691 1.51803 18.8903 2.20467 19.0306 2.90202C19.1152 3.32408 19.3113 3.53403 19.7066 3.7397C20.4146 4.10712 20.9813 4.07178 21.5951 3.56831C21.9914 3.24267 22.4692 3.01557 22.9169 2.7542C23.4536 2.44141 23.941 2.48961 24.3781 2.9213C25.4203 3.95287 26.4583 4.99087 27.4867 6.03743C27.9419 6.50126 27.9869 6.9351 27.6613 7.49748C27.2949 8.13163 26.9275 8.76578 26.529 9.37958C26.3437 9.66559 26.3673 9.89483 26.4487 10.2183C26.6715 11.0999 27.2125 11.4952 28.0855 11.5895C28.56 11.6409 29.0228 11.8005 29.4887 11.9215C30.0094 12.0565 30.3479 12.3704 30.3521 12.9338C30.3629 14.4903 30.3746 16.0478 30.3511 17.6043C30.3414 18.2245 30.0265 18.5191 29.357 18.684C28.665 18.8544 27.9773 19.0429 27.2799 19.1843C26.9779 19.2453 26.875 19.4178 26.7219 19.661C26.2109 20.474 26.3512 21.1671 26.9222 21.8773C27.2189 22.2469 27.4245 22.6903 27.6945 23.1392V23.1338Z" fill="white"/>
</svg>
