<svg width="33" height="32" viewBox="0 0 33 32" fill="none" xmlns="http://www.w3.org/2000/svg">
<path d="M10.7041 9.72033C10.1546 8.49907 10.2676 7.24171 10.2617 5.99717C10.2594 5.42903 10.2513 4.86089 10.2641 4.29392C10.2792 3.66059 10.6005 3.22517 11.2106 3.13203C13.1222 2.83865 14.5821 1.78853 15.8639 0.42523C16.3972 -0.141743 16.6172 -0.141743 17.1492 0.42523C18.4299 1.79085 19.891 2.84098 21.8026 3.13087C22.3754 3.21818 22.7351 3.61052 22.7363 4.18332C22.7363 5.63742 22.7002 7.09269 22.6374 8.54564C22.6211 8.93215 22.4557 9.31169 22.3405 9.76806C23.3813 9.99741 24.4372 10.2314 25.4943 10.4619C26.7831 10.7425 28.0789 10.9905 29.356 11.3153C29.6785 11.398 30.0348 11.6599 30.2152 11.9417C31.0674 13.2793 31.8684 14.6496 32.6764 16.0141C33.3353 17.1259 32.9721 18.1958 31.7846 18.6813C31.2444 18.9013 30.7007 19.1155 30.1326 19.3437C30.1326 21.2437 30.1326 23.1344 30.1326 25.0251C30.1326 26.1788 29.8392 26.6282 28.7763 27.0462C24.8494 28.5923 20.9225 30.1383 16.9874 31.6623C16.7185 31.7659 16.3413 31.7764 16.0747 31.6739C12.0849 30.1349 8.10328 28.5713 4.12283 27.0066C3.21241 26.6492 2.88061 26.1334 2.87944 25.1322C2.87712 23.3719 2.86431 21.6116 2.88876 19.8525C2.89458 19.4439 2.7735 19.2424 2.38232 19.1272C1.93177 18.9945 1.49635 18.8094 1.0621 18.6254C0.109773 18.2214 -0.290716 17.1154 0.229688 16.2132C1.08888 14.7253 1.96321 13.2444 2.88876 11.7973C3.0599 11.5295 3.48251 11.3526 3.82129 11.2757C5.9879 10.7833 8.16382 10.3315 10.3362 9.86236C10.4445 9.83908 10.547 9.78203 10.703 9.72033H10.7041ZM11.3934 4.25666C11.3934 5.28117 11.4097 6.28124 11.3887 7.28013C11.3642 8.45948 11.7217 9.51193 12.3888 10.4666C13.3958 11.9067 14.7498 12.9568 16.2505 13.8288C16.3809 13.9045 16.6288 13.908 16.7569 13.8335C18.1889 12.9976 19.487 11.9999 20.4859 10.654C21.2531 9.62021 21.6606 8.47462 21.6222 7.16953C21.593 6.19392 21.6163 5.21714 21.6163 4.25084C19.5161 3.94 17.9421 2.83632 16.5031 1.43111C15.0571 2.85146 13.461 3.95047 11.391 4.25666H11.3934ZM29.0009 19.8083C28.7576 19.8886 28.5783 19.9387 28.4049 20.0062C26.0532 20.9271 23.7026 21.8503 21.3521 22.7724C20.1075 23.2602 19.4323 23.0261 18.7442 21.8782C18.2261 21.0132 17.7022 20.1517 17.1178 19.1831V30.32C17.1818 30.3328 17.2028 30.3444 17.2179 30.3386C20.9923 28.867 24.769 27.4001 28.5329 25.9018C28.7448 25.8168 28.9765 25.4617 28.9812 25.2288C29.0184 23.4511 29.0021 21.6722 29.0021 19.8094L29.0009 19.8083ZM4.01106 19.7792C4.01106 21.5779 4.03085 23.2811 3.99942 24.9832C3.98894 25.5467 4.18802 25.8296 4.71308 26.0298C7.40592 27.0602 10.0859 28.1254 12.7718 29.1755C13.8021 29.5784 14.8348 29.973 15.893 30.3817V19.1784C15.2574 20.2332 14.6997 21.175 14.1269 22.1064C13.6123 22.9447 12.8544 23.2101 11.9394 22.869C11.1628 22.5791 10.3933 22.2682 9.62142 21.9667C7.78079 21.2484 5.939 20.5301 4.01106 19.778V19.7792ZM29.3269 12.6379C25.3255 14.2049 21.3579 15.7579 17.3425 17.3296C18.225 18.8012 19.0574 20.1924 19.8933 21.5825C20.1017 21.9283 20.4137 21.9213 20.7385 21.7979C21.3195 21.5779 21.8946 21.345 22.4732 21.118C25.4035 19.9712 28.335 18.8268 31.2642 17.6789C31.8463 17.4507 32.0151 17.155 31.752 16.7021C30.9661 15.3505 30.1512 14.0151 29.3258 12.6379H29.3269ZM15.6718 17.3261C11.6309 15.7451 7.67252 14.1956 3.68741 12.6355C2.8969 13.9534 2.12736 15.2294 1.3648 16.51C0.99225 17.1364 1.08772 17.4135 1.75481 17.6766C2.82473 18.098 3.8958 18.5148 4.96688 18.9328C7.37215 19.8723 9.77859 20.8072 12.1804 21.7525C12.5471 21.8969 12.8824 21.9679 13.1222 21.5709C13.9616 20.1831 14.7917 18.7907 15.6695 17.3261H15.6718ZM5.48961 12.0709C5.62466 12.1512 5.6689 12.1873 5.72013 12.2071C9.21045 13.5762 12.6996 14.9488 16.1969 16.3005C16.396 16.3773 16.6835 16.3424 16.8931 16.2632C18.8129 15.5344 20.7257 14.7858 22.6385 14.0384C24.2498 13.4086 25.8576 12.7729 27.6132 12.0825C25.6631 11.6646 23.8668 11.2711 22.0646 10.9067C21.919 10.8776 21.6676 10.9882 21.5791 11.1139C20.5418 12.5761 19.161 13.6391 17.6976 14.6391C16.8419 15.2236 16.1527 15.1945 15.304 14.6263C13.7358 13.5762 12.2933 12.4132 11.2408 10.8205C9.32454 11.2373 7.44899 11.6459 5.49078 12.072L5.48961 12.0709Z" fill="white"/>
<path d="M15.7353 8.84534C16.4699 7.86973 17.1417 6.98492 17.8041 6.0943C18.0369 5.78112 18.3012 5.5215 18.6947 5.79044C19.1104 6.0745 18.98 6.4261 18.725 6.76372C17.952 7.78707 17.1882 8.8174 16.4094 9.83608C16.0275 10.3355 15.7539 10.3472 15.301 9.90477C14.8819 9.49613 14.4756 9.07469 14.0565 8.66838C13.7806 8.40061 13.6269 8.10257 13.9331 7.78939C14.2521 7.46341 14.5874 7.581 14.868 7.87904C15.152 8.18057 15.4233 8.49607 15.7353 8.84534Z" fill="white"/>
</svg>
