<svg width="32" height="27" viewBox="0 0 32 27" fill="none" xmlns="http://www.w3.org/2000/svg">
<path d="M1.23319 21.917V25.5157C1.44164 25.5157 1.63146 25.5157 1.82017 25.5157C5.36723 25.5157 8.91538 25.5157 12.4624 25.5157C12.6084 25.5157 12.7587 25.4981 12.8991 25.5266C13.2206 25.5936 13.4707 25.8031 13.3873 26.1301C13.3325 26.3484 13.0999 26.5426 12.9057 26.6951C12.8124 26.7686 12.6237 26.7269 12.4789 26.7269C8.63999 26.728 4.80109 26.728 0.962195 26.7269C0.138242 26.7269 0.00109714 26.5865 0 25.7669C0 24.3582 0 22.9484 0 21.5396C0 20.8309 0.176648 20.6575 0.886499 20.6553C1.12568 20.6553 1.36485 20.6553 1.62597 20.6553C1.76421 19.1665 1.90135 17.7205 2.03191 16.2744C2.17673 14.6803 2.31278 13.0851 2.4598 11.4909C2.56841 10.3159 2.70226 9.14303 2.79771 7.96689C2.83831 7.46879 3.09833 7.28886 3.55474 7.28996C4.4906 7.29215 5.42646 7.28996 6.41608 7.28996C6.41608 6.43419 6.45558 5.62559 6.40621 4.82358C6.34806 3.88882 6.6794 3.31172 7.76228 3.88882C8.30097 4.17627 8.81334 4.22235 9.34436 3.8965C9.84575 3.5893 10.3526 3.60576 10.8496 3.90747C11.3488 4.21028 11.8404 4.2026 12.3439 3.91515C12.4964 3.82848 12.6698 3.77472 12.8377 3.71876C13.3632 3.54322 13.6967 3.77252 13.7022 4.32548C13.7099 5.15163 13.7022 5.97778 13.7055 6.80392C13.7055 6.94545 13.7209 7.08808 13.7296 7.25924H19.7902V6.07323C19.2559 6.07323 18.7117 6.07652 18.1687 6.07323C17.5751 6.06884 17.3941 5.88671 17.393 5.29097C17.3908 3.78459 17.3908 2.27821 17.393 0.771839C17.393 0.191451 17.5609 0.00603428 18.138 0.00493714C20.454 -0.00164571 22.7712 -0.00164571 25.0872 0.00493714C25.6885 0.00603428 25.8509 0.18816 25.8519 0.802559C25.8541 2.30893 25.8541 3.81531 25.8519 5.32168C25.8519 5.88452 25.6654 6.06884 25.096 6.07323C24.5628 6.07871 24.0296 6.07323 23.4602 6.07323V7.28996C23.6489 7.28996 23.8211 7.28996 23.9945 7.28996C25.1772 7.28996 26.3599 7.29105 27.5416 7.28996C27.9991 7.28996 28.2569 7.46989 28.2986 7.96689C28.4412 9.67514 28.6069 11.3801 28.7682 13.0873C28.9525 15.0511 29.1423 17.0139 29.3255 18.9778C29.376 19.522 29.4166 20.0673 29.4648 20.6564C29.8126 20.6564 30.133 20.6477 30.4534 20.6586C30.8582 20.6718 31.0908 20.8934 31.093 21.2972C31.1018 22.8847 31.0996 24.4723 31.0952 26.0599C31.0952 26.4636 30.8813 26.6918 30.4753 26.7214C30.3305 26.7324 30.1835 26.728 30.0386 26.728C26.2645 26.728 22.4903 26.728 18.7161 26.728C18.6185 26.728 18.522 26.728 18.4243 26.728C18.0228 26.7247 17.7166 26.5931 17.6925 26.1356C17.6717 25.7329 17.9295 25.5179 18.4408 25.5179C21.2429 25.5146 24.045 25.5168 26.8482 25.5168C27.8345 25.5168 28.8197 25.5168 29.8456 25.5168V21.9181H1.23428L1.23319 21.917ZM2.85257 20.6323H28.247C27.8773 16.5784 27.5108 12.5508 27.1455 8.5396H13.7296V13.3681C13.9414 13.3681 14.1312 13.3604 14.3199 13.3692C14.7061 13.3868 14.942 13.6194 14.9431 13.9781C14.9442 14.3128 14.7225 14.5432 14.3572 14.5695C14.2277 14.5794 14.0983 14.5794 13.9688 14.5794C11.3785 14.5794 8.7881 14.5794 6.19775 14.5794C6.05183 14.5794 5.90482 14.5838 5.76219 14.5607C5.43414 14.5059 5.24873 14.3171 5.24654 13.9672C5.24434 13.6106 5.44841 13.4296 5.76878 13.378C5.96846 13.3462 6.17692 13.3725 6.38537 13.3725V8.53192H3.9552C3.58876 12.5617 3.2245 16.5674 2.85476 20.6334L2.85257 20.6323ZM7.68658 13.3286H12.4964V5.21087C11.4937 5.46102 11.4772 5.49613 10.8266 5.18893C10.3033 4.94098 9.83039 4.92123 9.33119 5.20429C8.83858 5.48296 8.33828 5.55099 7.8325 5.22623C7.80287 5.20648 7.74363 5.23172 7.68658 5.2372V13.3308V13.3286ZM18.6053 1.22715V4.82797H24.6462V1.22825H18.6053V1.22715ZM21.0245 6.09298V7.24497H22.2237V6.09298H21.0245Z" fill="white"/>
<path d="M16.1322 23.8254C16.1191 24.0613 15.9216 24.2587 15.5661 24.2818C15.2139 24.3048 14.9627 24.0415 14.9649 23.6805C14.9671 23.3031 15.1887 23.1232 15.5332 23.0925C15.8755 23.0629 16.1377 23.3415 16.1322 23.8243V23.8254Z" fill="white"/>
<path d="M15.5726 26.7205C15.2281 26.6886 14.9911 26.5416 14.9659 26.1653C14.9406 25.7681 15.1546 25.5443 15.5254 25.5268C15.8677 25.5114 16.108 25.6935 16.131 26.0699C16.1552 26.4637 15.9423 26.6601 15.5715 26.7194L15.5726 26.7205Z" fill="white"/>
<path d="M21.0411 9.72119C22.3686 9.72119 23.6961 9.7168 25.0248 9.72119C25.7039 9.72338 25.8531 9.87918 25.8542 10.5528C25.8553 11.6544 25.8575 12.7548 25.8542 13.8563C25.852 14.3687 25.671 14.5727 25.1586 14.5738C22.3894 14.5815 19.6213 14.5815 16.8522 14.5738C16.3727 14.5727 16.1456 14.3303 16.1412 13.8442C16.1302 12.7274 16.1324 11.6094 16.1412 10.4925C16.1456 9.95598 16.3705 9.72887 16.9147 9.72558C18.2905 9.7168 19.6674 9.72229 21.0433 9.72229L21.0411 9.72119ZM17.426 10.9566V13.3275H24.655V10.9566H17.426Z" fill="white"/>
<path d="M10.0983 15.8051C10.3243 15.8051 10.5888 15.7316 10.7676 15.8238C10.9749 15.9302 11.1922 16.1584 11.2536 16.3767C11.3447 16.7015 11.1154 16.9527 10.784 16.9791C10.3189 17.0164 9.83612 17.0504 9.38519 16.9615C9.17783 16.9209 8.8849 16.5775 8.89477 16.3844C8.90465 16.1814 9.20088 15.9368 9.42908 15.8194C9.60792 15.7272 9.87233 15.8007 10.0994 15.8007C10.0994 15.8007 10.0994 15.8029 10.0994 15.804L10.0983 15.8051Z" fill="white"/>
<path d="M17.3959 15.7989C17.5736 15.7989 17.7524 15.7901 17.9302 15.7989C18.2966 15.8186 18.5523 15.9722 18.5621 16.3803C18.572 16.783 18.3416 16.9783 17.9686 16.9991C17.5648 17.0211 17.1589 17.0178 16.7551 16.9991C16.3701 16.9827 16.1396 16.738 16.1561 16.3738C16.1715 16.0402 16.4008 15.8164 16.7639 15.8C16.9735 15.7901 17.1841 15.7978 17.3948 15.7978L17.3959 15.7989Z" fill="white"/>
<path d="M24.6621 15.7975C24.8563 15.7975 25.0516 15.7865 25.2447 15.7997C25.5892 15.8238 25.8316 15.9752 25.8514 16.3559C25.8722 16.7531 25.6594 16.9714 25.282 16.9944C24.8629 17.0197 24.4405 17.0131 24.0213 16.9944C23.6549 16.9791 23.4421 16.7322 23.4454 16.3965C23.4486 16.0608 23.6714 15.8293 24.0312 15.8008C24.2408 15.7843 24.4514 15.7975 24.6621 15.7975C24.6621 15.7975 24.6621 15.7975 24.6621 15.7964V15.7975Z" fill="white"/>
<path d="M10.0975 18.2295C10.3081 18.2295 10.521 18.2087 10.7283 18.235C11.0487 18.2756 11.2648 18.4424 11.2758 18.8C11.2868 19.1731 11.0926 19.3947 10.7393 19.4199C10.3048 19.4517 9.86596 19.444 9.4304 19.4221C9.06505 19.4045 8.85659 19.1511 8.86866 18.8143C8.88073 18.4797 9.10454 18.2525 9.4666 18.2306C9.67615 18.2174 9.8868 18.2284 10.0975 18.2295Z" fill="white"/>
<path d="M17.3741 19.4234C17.1481 19.4234 16.8826 19.498 16.7049 19.4047C16.4799 19.2873 16.1826 19.0328 16.1826 18.8386C16.1826 18.6367 16.4756 18.3065 16.6884 18.2615C17.1218 18.1704 17.5903 18.2055 18.0412 18.2407C18.3605 18.2659 18.5667 18.4667 18.5656 18.8243C18.5656 19.1732 18.3813 19.3729 18.0522 19.4179C17.8294 19.4475 17.6001 19.4234 17.3741 19.4245V19.4234Z" fill="white"/>
<path d="M24.7038 18.2317C24.9144 18.2317 25.1283 18.2053 25.3335 18.2382C25.6528 18.2887 25.8579 18.4708 25.8547 18.8274C25.8514 19.1774 25.667 19.3913 25.3379 19.4155C24.8881 19.4484 24.4207 19.4857 23.9862 19.3968C23.7723 19.3529 23.4958 19.0501 23.4607 18.8307C23.4091 18.5114 23.6659 18.2646 24.0246 18.2327C24.2495 18.213 24.4777 18.2295 24.7038 18.2295C24.7038 18.2295 24.7038 18.2306 24.7038 18.2317Z" fill="white"/>
<path d="M6.44901 16.9956C6.223 16.9956 5.99369 17.0176 5.77097 16.9901C5.44183 16.9495 5.25203 16.7586 5.24435 16.4075C5.23667 16.051 5.43636 15.8403 5.75563 15.8129C6.20545 15.7734 6.67393 15.7405 7.1084 15.8304C7.32453 15.8754 7.62076 16.1947 7.62624 16.3977C7.63173 16.5919 7.33989 16.8541 7.11717 16.9737C6.94272 17.068 6.67502 16.9923 6.44901 16.9923C6.44901 16.9923 6.44901 16.9945 6.44901 16.9956Z" fill="white"/>
<path d="M13.7401 15.7994C13.9507 15.7994 14.1625 15.7818 14.371 15.8038C14.7275 15.8411 14.9832 16.0901 14.9261 16.4083C14.8877 16.6277 14.609 16.9218 14.3918 16.9689C13.9749 17.0589 13.5229 17.0183 13.0884 16.9931C12.7373 16.9722 12.53 16.7649 12.5332 16.3897C12.5365 16.0089 12.7636 15.8378 13.1092 15.8027C13.3177 15.7818 13.5294 15.7994 13.7401 15.7994Z" fill="white"/>
<path d="M21.0266 15.7982C21.2208 15.7982 21.415 15.7905 21.6092 15.7992C21.9943 15.8179 22.2301 16.0505 22.2312 16.4093C22.2312 16.7428 22.0107 16.9853 21.6443 16.9973C21.2241 17.0116 20.8017 17.0193 20.3837 16.9929C20.0326 16.971 19.823 16.768 19.8252 16.3928C19.8263 16.0121 20.0512 15.8376 20.3968 15.8025C20.6053 15.7806 20.817 15.7982 21.0277 15.7982H21.0266Z" fill="white"/>
<path d="M6.43568 18.2333C6.6617 18.2333 6.92939 18.1576 7.10494 18.252C7.32985 18.3727 7.62059 18.6261 7.62498 18.8291C7.62937 19.0233 7.33095 19.3524 7.1192 19.3963C6.68473 19.4863 6.21736 19.4501 5.76753 19.4171C5.41205 19.3908 5.22773 19.1571 5.24529 18.7874C5.26284 18.4319 5.48337 18.2695 5.80483 18.2344C6.01219 18.2114 6.22503 18.23 6.43568 18.23C6.43568 18.2311 6.43568 18.2322 6.43568 18.2333Z" fill="white"/>
<path d="M13.7291 19.4301C13.5185 19.4301 13.3067 19.4466 13.0982 19.4257C12.7483 19.3906 12.5354 19.2052 12.5332 18.8289C12.531 18.4493 12.7527 18.2573 13.0993 18.2353C13.5185 18.209 13.9409 18.2123 14.3611 18.2353C14.7209 18.254 14.9415 18.4975 14.9415 18.8344C14.9415 19.1701 14.7264 19.4049 14.36 19.429C14.1504 19.4422 13.9398 19.4312 13.7291 19.4312V19.4301Z" fill="white"/>
<path d="M21.0311 18.2297C21.2418 18.2297 21.4535 18.2121 21.662 18.2341C22.0186 18.2725 22.2731 18.5215 22.216 18.8397C22.1766 19.0591 21.8979 19.3521 21.6806 19.3992C21.2637 19.4892 20.8117 19.4486 20.3772 19.4223C20.0262 19.4003 19.8199 19.193 19.8243 18.8178C19.8287 18.437 20.0558 18.2659 20.4014 18.2319C20.6098 18.211 20.8216 18.2286 21.0322 18.2286L21.0311 18.2297Z" fill="white"/>
</svg>
