<svg width="31" height="31" viewBox="0 0 31 31" fill="none" xmlns="http://www.w3.org/2000/svg">
<path d="M2.03655 28.3406C1.73769 28.3256 1.49986 28.3395 1.27063 28.2977C0.490792 28.1585 0.0141096 27.5286 0.0141096 26.6491C0.0119672 22.9235 0.0141096 19.1979 0.0141096 15.4722C0.0141096 11.6116 0.0141096 7.75101 0.0141096 3.8904C0.0141096 3.73936 -0.0308819 3.5519 0.0398174 3.44478C0.148009 3.28089 0.346178 3.05915 0.491861 3.06879C0.671823 3.08164 0.878585 3.27767 0.994275 3.44906C1.07354 3.5669 1.02105 3.77578 1.02105 3.94396C1.02105 11.4295 1.02105 18.914 1.02105 26.3996C1.02105 27.2287 1.10782 27.3133 1.95192 27.3133C10.7883 27.3133 19.6246 27.3133 28.4609 27.3133C29.2643 27.3133 29.3554 27.2222 29.3554 26.4146C29.3554 18.2381 29.3554 10.0616 29.3554 1.88511C29.3554 1.11492 29.2515 1.00994 28.4909 1.00994C19.6214 1.00994 10.7508 1.01101 1.88121 1.00565C1.41523 1.00565 1.06068 1.0485 0.981408 1.63231C0.961055 1.7812 0.59686 2.0083 0.432966 1.97723C0.265859 1.9451 0.0483797 1.6473 0.0323117 1.45235C-0.0233908 0.739996 0.665405 0.0640679 1.43881 0.00622299C1.58985 -0.00556023 1.74196 0.00300931 1.89407 0.00300931C10.7636 0.00300931 19.6342 0.00300931 28.5038 0.00300931C29.8214 0.00300931 30.3645 0.550393 30.3645 1.87975C30.3645 9.97161 30.3645 18.0635 30.3645 26.1564C30.3645 27.8275 30.0495 28.181 28.341 28.3663C28.341 28.8087 28.3367 29.2586 28.342 29.7085C28.3474 30.152 28.1353 30.3512 27.694 30.3491C26.4289 30.3427 25.1648 30.3448 23.8998 30.348C23.482 30.348 23.2806 30.1477 23.2838 29.7299C23.2881 29.279 23.2838 28.828 23.2838 28.3513H7.09155C7.09155 28.7916 7.08512 29.2393 7.09369 29.686C7.10226 30.1541 6.88266 30.3555 6.41668 30.3512C5.18587 30.3416 3.95507 30.3512 2.72425 30.3459C2.19722 30.3437 2.04405 30.1841 2.03762 29.6474C2.03227 29.2286 2.03762 28.8098 2.03762 28.3427L2.03655 28.3406ZM6.06533 28.3609H3.0724V29.3057H6.06533V28.3609ZM27.3212 28.3534H24.3304V29.2939H27.3212V28.3534Z" fill="white"/>
<path d="M27.3281 5.04101C27.5037 5.04851 27.6344 5.05815 27.7651 5.06029C28.1325 5.06672 28.335 5.25097 28.3372 5.61839C28.3436 6.5964 28.3447 7.5744 28.3372 8.55134C28.3339 8.91983 28.1208 9.10087 27.7576 9.10194C26.7968 9.10408 25.8348 9.10515 24.874 9.10194C24.4787 9.0998 24.2955 8.88448 24.2966 8.49671C24.2976 7.55298 24.2976 6.60818 24.2966 5.66445C24.2966 5.2424 24.5119 5.05387 24.9264 5.06029C25.3646 5.06672 25.8016 5.06137 26.2804 5.06137V3.07H3.075V25.2492H26.2944C26.3029 25.1035 26.3104 24.9429 26.3222 24.7833C26.3458 24.4651 26.5279 24.2348 26.8321 24.3034C27.0206 24.3462 27.1642 24.5979 27.3238 24.7608C27.3409 24.779 27.3291 24.8261 27.3291 24.8593C27.3291 26.269 27.4673 26.3065 25.9655 26.3044C18.3096 26.2926 10.6538 26.299 2.99788 26.299C2.11199 26.299 2.03809 26.2272 2.03809 25.3649C2.03809 17.8794 2.03809 10.3949 2.03809 2.90932C2.03809 2.11449 2.13128 2.02344 2.94325 2.02344C10.7673 2.02344 18.5924 2.02344 26.4165 2.02344C27.2467 2.02344 27.3291 2.10806 27.3302 2.95217C27.3302 3.63988 27.3302 4.32759 27.3302 5.03994L27.3281 5.04101ZM27.3034 8.07144V6.10043H25.341V8.07144H27.3034Z" fill="white"/>
<path d="M19.2305 9.10645C22.0296 9.10537 24.2984 11.3785 24.2941 14.1807C24.2898 16.9498 22.0167 19.2164 19.2423 19.2175C16.4443 19.2197 14.1744 16.9423 14.1787 14.1422C14.1841 11.3731 16.4561 9.10752 19.2294 9.10645H19.2305ZM16.7839 10.8471C16.7817 10.9157 16.7796 10.9832 16.7775 11.0517C16.9553 11.206 17.1406 11.3528 17.3098 11.5156C17.5723 11.7673 17.7673 12.048 17.4309 12.3758C17.117 12.681 16.8428 12.5011 16.6071 12.2504C16.4347 12.0672 16.2868 11.8616 16.1283 11.6655C16.0619 11.6763 15.9955 11.687 15.9291 11.6966C15.6763 12.3222 15.4245 12.9478 15.1374 13.658C15.5627 13.658 15.8145 13.6633 16.0651 13.6569C16.4122 13.6483 16.6875 13.7662 16.6939 14.1464C16.7003 14.5578 16.41 14.6756 16.0437 14.6671C15.7941 14.6617 15.5434 14.666 15.1278 14.666C15.4224 15.3805 15.6795 16.0028 15.9623 16.6916C16.3104 16.3628 16.5364 16.1367 16.7753 15.9257C17.0024 15.7254 17.2852 15.72 17.4309 15.9675C17.5305 16.1378 17.5434 16.4527 17.4491 16.6231C17.2991 16.893 17.0281 17.0944 16.7025 17.4372C17.3955 17.7189 18.019 17.9728 18.7324 18.262C18.7324 17.8067 18.7281 17.5229 18.7324 17.239C18.7378 16.9273 18.8845 16.713 19.208 16.7002C19.5594 16.6863 19.7254 16.9027 19.7361 17.2379C19.7458 17.5336 19.7383 17.8292 19.7383 18.2813C20.4678 17.976 21.0837 17.7178 21.8346 17.4029C21.5057 17.1083 21.299 16.9359 21.1073 16.7484C20.8684 16.5149 20.7377 16.2524 21.0194 15.9611C21.3001 15.6708 21.5754 15.7715 21.8035 16.0221C21.9932 16.2299 22.1442 16.4742 22.3124 16.7013C22.3906 16.6723 22.4698 16.6434 22.548 16.6145C22.7987 15.9953 23.0493 15.3773 23.3364 14.6671C22.9272 14.6671 22.6776 14.6628 22.428 14.6681C22.0606 14.6767 21.7703 14.5556 21.7778 14.1464C21.7842 13.7683 22.0596 13.6483 22.4077 13.658C22.6701 13.6644 22.9326 13.6591 23.3525 13.6591C23.0483 12.9328 22.7901 12.3168 22.5062 11.6377C22.2931 11.8391 22.1902 11.9494 22.0735 12.0437C21.7714 12.289 21.5389 12.801 21.0355 12.379C20.7238 12.1176 20.803 11.8819 21.3365 11.341C21.4511 11.2253 21.5582 11.101 21.7618 10.8804C21.0698 10.5997 20.4495 10.348 19.7361 10.0587C19.7361 10.514 19.7458 10.8139 19.7329 11.1139C19.7201 11.4245 19.5615 11.6281 19.2348 11.6291C18.9091 11.6302 18.7453 11.432 18.7324 11.1192C18.7206 10.8193 18.7303 10.5183 18.7303 10.0609C18.019 10.348 17.3998 10.5986 16.7807 10.8482L16.7839 10.8471Z" fill="white"/>
<path d="M10.1289 17.3646C10.1289 18.1337 10.1332 18.875 10.1279 19.6152C10.1204 20.5536 9.4905 21.2327 8.62711 21.2402C7.74337 21.2488 7.10279 20.5611 7.09743 19.5938C7.09422 18.9875 7.07706 18.3801 7.10491 17.776C7.11991 17.4653 7.00638 17.3089 6.74929 17.145C5.51741 16.3577 4.93466 15.2019 5.10391 13.7611C5.28387 12.2325 6.18476 11.2063 7.65231 10.7553C9.31267 10.2443 11.1187 11.1174 11.8439 12.7156C12.5477 14.2678 12.0164 16.1242 10.5906 17.084C10.4513 17.1782 10.3035 17.2586 10.1279 17.3646H10.1289ZM10.1289 16.1317C11.0416 15.4589 11.3651 14.3138 10.9869 13.2919C10.6002 12.2443 9.58367 11.5748 8.47069 11.6348C7.37807 11.6937 6.42899 12.4703 6.17511 13.5136C5.92231 14.5516 6.29081 15.6239 7.09529 16.092C7.09529 15.4664 7.091 14.8655 7.09529 14.2646C7.10278 13.3305 7.73587 12.6535 8.6014 12.647C9.46693 12.6406 10.115 13.3176 10.1257 14.2463C10.1321 14.8516 10.1268 15.4568 10.1268 16.1317H10.1289ZM9.11985 16.9897C9.11985 16.1145 9.11556 15.2394 9.12199 14.3642C9.12413 13.9893 9.04487 13.6593 8.59604 13.6679C8.18363 13.6765 8.10113 13.9871 8.10221 14.3449C8.10756 16.0792 8.10756 17.8124 8.10221 19.5467C8.10113 19.9087 8.19111 20.2097 8.60245 20.2172C9.01379 20.2247 9.12306 19.9291 9.12092 19.5649C9.11556 18.7068 9.11985 17.8477 9.11985 16.9897Z" fill="white"/>
<path d="M27.3287 19.1982C28.3078 19.2592 28.341 19.2946 28.341 20.2158C28.341 21.0085 28.3335 21.8001 28.3442 22.5928C28.3507 23.0588 28.145 23.2719 27.6758 23.2677C26.7653 23.2591 25.8548 23.2612 24.9443 23.2677C24.5051 23.2709 24.2919 23.0738 24.2951 22.6282C24.3015 21.7176 24.3048 20.8071 24.2941 19.8977C24.2887 19.4338 24.4847 19.21 24.9571 19.2217C25.392 19.2324 25.8269 19.2239 26.3208 19.2239V18.6454C26.3208 16.1003 26.3208 13.554 26.3208 11.0088C26.3208 10.891 26.3175 10.7732 26.3229 10.6553C26.3358 10.3425 26.4857 10.1326 26.8092 10.1262C27.1617 10.1187 27.3159 10.3415 27.3287 10.6746C27.333 10.7924 27.3298 10.9103 27.3298 11.0281C27.3298 13.5572 27.3298 16.0853 27.3298 18.6144V19.1992L27.3287 19.1982ZM27.2902 22.2382V20.2587H25.3374V22.2382H27.2902Z" fill="white"/>
<path d="M20.7519 14.1387C20.7659 14.9571 20.0921 15.6577 19.2715 15.6769C18.4531 15.6973 17.7461 15.0278 17.7204 14.2094C17.6947 13.3685 18.3835 12.6529 19.2255 12.6465C20.0471 12.6412 20.738 13.3149 20.7519 14.1376V14.1387ZM19.1505 14.7461C19.2265 14.7418 19.3026 14.7375 19.3786 14.7332C19.4986 14.5297 19.7246 14.3165 19.7064 14.1258C19.6904 13.9566 19.4215 13.7156 19.2319 13.6802C18.9341 13.6256 18.6995 13.8698 18.7541 14.1698C18.7916 14.3786 19.0123 14.5543 19.1505 14.745V14.7461Z" fill="white"/>
</svg>
