<svg width="22" height="31" viewBox="0 0 22 31" fill="none" xmlns="http://www.w3.org/2000/svg">
	<path d="M0.0019398 21.2052C0.0019398 19.0981 0.0042823 16.9899 0.0019398 14.8828C0.000768558 13.7549 0.451698 12.9374 1.54564 12.5181C1.69322 12.4618 1.8244 12.2733 1.89233 12.1152C2.14298 11.5342 2.51778 11.061 3.11862 10.8525C3.47703 10.7272 3.51333 10.5246 3.52388 10.2037C3.57424 8.76539 3.48171 7.2943 3.75344 5.89584C4.46321 2.24155 7.78018 -0.198156 11.5129 0.0126686C15.0173 0.210609 18.0028 3.0462 18.38 6.61732C18.5065 7.81551 18.4619 9.03126 18.4737 10.24C18.4772 10.5445 18.5252 10.7249 18.8578 10.842C19.4563 11.0528 19.8335 11.5166 20.097 12.0941C20.1802 12.2756 20.3605 12.4607 20.5421 12.5415C21.4767 12.9608 21.9839 13.6741 21.9874 14.6849C22.0026 19.036 22.0061 23.3884 21.9862 27.7396C21.9804 29.0865 21.0153 29.9802 19.6601 29.9872C18.9187 29.9907 18.175 30.0188 17.4371 29.972C17.1583 29.9544 16.7871 29.8349 16.6348 29.6311C15.7493 28.4341 14.6097 28.1015 13.1457 28.1999C11.2026 28.3299 9.24541 28.2198 7.29412 28.2456C7.02004 28.2491 6.63822 28.3662 6.49298 28.5665C5.59932 29.801 4.41754 30.2214 2.94645 29.9954C2.56463 29.9368 2.1582 30.0165 1.78223 29.9403C0.692975 29.7213 0.0113098 28.83 0.00545354 27.6447C-0.00508767 25.4978 0.00311105 23.3521 0.0019398 21.2052ZM19.2502 12.4208C18.8883 11.6209 18.2921 11.5401 17.6409 11.5412C13.2101 11.5448 8.77808 11.5424 4.34726 11.5448C4.17158 11.5448 3.99472 11.5483 3.82137 11.5694C3.20178 11.6478 2.75202 12.0343 2.69229 12.6469C2.64544 13.1189 2.41119 13.2677 1.99306 13.3426C1.30905 13.4644 0.919025 13.9142 0.917854 14.5935C0.909655 19.0056 0.909655 23.4165 0.917854 27.8286C0.919025 28.522 1.37464 28.9963 2.06216 29.0818C2.2929 29.1111 2.53417 29.076 2.76257 29.1134C4.11184 29.336 5.19876 28.9389 5.98701 27.7934C6.24585 27.4175 6.61948 27.3425 7.06104 27.346C9.20793 27.3624 11.3607 27.4444 13.5005 27.3214C14.9646 27.2371 16.1253 27.5393 16.9932 28.7621C17.1115 28.9284 17.3668 29.083 17.5659 29.0924C18.3249 29.1275 19.0886 29.1298 19.8487 29.0877C20.6053 29.0467 21.0762 28.5442 21.0785 27.7958C21.0867 23.4036 21.0867 19.0114 21.0785 14.6193C21.0773 13.8697 20.6065 13.3906 19.8546 13.3168C19.6414 13.2958 19.4259 13.3016 19.2115 13.3005C14.3122 13.3005 9.41173 13.3005 4.51241 13.2981C4.29924 13.2981 4.06382 13.3262 3.87759 13.2489C3.73002 13.1868 3.55081 12.9795 3.5555 12.8425C3.56018 12.7019 3.74758 12.5181 3.89985 12.4454C4.04391 12.3763 4.24419 12.422 4.41988 12.422C9.12477 12.422 13.8285 12.422 18.5334 12.422H19.2514L19.2502 12.4208ZM14.9587 10.6406C14.9587 9.49859 15.0033 8.40699 14.9494 7.32124C14.8498 5.31373 13.3272 3.72552 11.3864 3.52875C9.49372 3.33784 7.58224 4.56296 7.21799 6.44632C6.95563 7.80028 7.03878 9.221 6.96617 10.6406H14.9587ZM17.5671 10.6347C17.5671 9.51381 17.58 8.4433 17.5648 7.37395C17.5203 4.20221 15.1836 1.4861 12.0623 0.962549C8.93386 0.437831 5.83943 2.30714 4.77945 5.34418C4.17626 7.07294 4.52763 8.84855 4.41402 10.6242H6.18377C6.18377 9.4939 6.17558 8.40582 6.18612 7.31656C6.199 6.06918 6.67453 5.00452 7.53305 4.11437C8.89052 2.70888 10.9648 2.26029 12.7556 2.96655C14.5898 3.68921 15.7856 5.41445 15.8114 7.40557C15.8255 8.47258 15.8138 9.53958 15.8138 10.6347H17.5671Z" fill="white" fill-opacity="0.95"/>
	<path d="M9.24219 19.1274C9.25039 18.3052 9.69077 17.6399 10.3221 17.3893C11.0237 17.1105 11.669 17.23 12.2078 17.7535C12.7442 18.2747 12.9714 18.9494 12.6142 19.6123C12.2945 20.2061 12.3062 20.7952 12.3015 21.4101C12.2991 21.7018 12.3155 21.9969 12.2839 22.2862C12.2148 22.9175 11.6304 23.4141 10.9932 23.4106C10.3525 23.4071 9.77862 22.9093 9.71069 22.2757C9.6814 22.0051 9.69663 21.7311 9.69429 21.4582C9.6896 20.8234 9.7751 20.1815 9.36634 19.6076C9.25273 19.4483 9.25976 19.2023 9.24219 19.1274ZM10.6828 20.9299L10.547 20.9721C10.547 21.3024 10.4896 21.6467 10.5669 21.9583C10.6184 22.1633 10.8644 22.3202 11.0237 22.4982C11.1654 22.3214 11.3317 22.1586 11.4383 21.963C11.4957 21.8576 11.4418 21.6959 11.4512 21.5601C11.5039 20.787 11.2919 19.9941 11.7861 19.2527C11.9044 19.0759 11.6889 18.5371 11.4734 18.3134C11.1829 18.0112 10.6875 18.0405 10.4369 18.3801C10.2506 18.6331 10.1827 19.0571 10.2307 19.3792C10.3092 19.9074 10.5247 20.4158 10.6828 20.9323V20.9299Z" fill="white" fill-opacity="0.95"/>
	</svg>
	