<svg width="55" height="32" viewBox="0 0 55 32" fill="none" xmlns="http://www.w3.org/2000/svg">
<path d="M37.351 22.0141C39.0761 20.3639 41.1082 19.4792 43.5568 19.1242C39.4944 17.7791 37.5908 14.9448 38.2682 11.4773C38.8727 8.38594 41.7549 6.16959 44.925 6.3634C47.9492 6.54761 50.603 9.1017 50.8448 11.9398C51.1806 15.8736 48.544 18.4468 45.3836 19.0532C46.0706 19.2163 46.5273 19.3161 46.982 19.4351C51.457 20.6095 54.3852 24.3859 54.391 28.9837C54.391 29.4653 54.3968 29.9469 54.391 30.4286C54.3756 31.4552 54.0264 31.8121 53.0266 31.8352C52.8846 31.839 52.7426 31.8352 52.6026 31.8352C35.67 31.8352 18.7355 31.8352 1.80294 31.8352C0.288912 31.8352 0.0855061 31.5742 0.0164249 30.0717C-0.1179 27.0916 0.553723 24.4128 2.69524 22.2175C4.28411 20.5884 6.17233 19.5445 8.44625 19.2374C8.52876 19.2259 8.6132 19.2067 8.68995 19.1722C8.73601 19.1511 8.76479 19.0935 8.79933 19.0513C4.9423 18.0765 3.16921 15.0561 3.6144 11.6692C4.01738 8.60662 6.90919 6.28088 10.108 6.35572C13.3472 6.43248 15.9569 8.89445 16.2563 12.3332C16.4885 14.9966 14.8286 18.1648 11.031 19.0724C13.303 19.4869 15.3563 20.3562 17.0622 22.0084C19.3937 19.0782 22.3795 17.4375 25.9526 17.0307C24.9547 16.6181 23.8072 16.3188 22.865 15.7066C21.8902 15.0734 20.9653 14.2406 20.2937 13.3003C19.6412 12.385 19.1538 11.2586 18.9351 10.1571C18.7106 9.02302 18.7163 7.77381 18.937 6.63589C19.7046 2.68291 23.481 -0.170532 27.5165 0.00792817C31.8168 0.19982 35.1001 3.27777 35.6738 7.65099C36.2284 11.8976 33.54 15.3209 28.2706 17.0038C31.9914 17.4202 34.9907 19.0283 37.3548 22.0122L37.351 22.0141ZM37.7232 29.6783C38.0245 26.182 35.7525 22.229 32.2697 20.408C28.3052 18.3356 24.4059 18.6291 20.8099 21.2907C18.0447 23.3363 16.6784 26.1648 16.6228 29.6783H37.7232ZM20.8521 8.37059C20.7772 11.8611 23.5923 14.7913 27.0771 14.8508C30.5906 14.9103 33.4594 12.1585 33.5611 8.62965C33.6628 5.14296 30.8631 2.18974 27.3783 2.10915C23.8322 2.02663 20.9269 4.81483 20.8502 8.37059H20.8521ZM2.1944 29.6476H14.1608C14.7 27.769 15.2277 26.0285 15.6767 24.2669C15.7477 23.9887 15.5463 23.5224 15.316 23.3075C12.6391 20.809 8.3503 20.5346 5.38365 22.6742C3.02338 24.3763 1.95454 26.6905 2.19632 29.6476H2.1944ZM52.1996 29.6649C52.5527 26.3259 50.8372 23.3766 47.7957 21.9585C44.877 20.598 41.0046 21.2485 38.9206 23.4744C38.7633 23.6433 38.6386 23.9791 38.6942 24.1863C39.1835 25.9921 39.7151 27.7862 40.2601 29.6668H52.1996V29.6649ZM14.1243 12.7496C14.1339 10.3893 12.2361 8.48764 9.87968 8.49916C7.57314 8.51067 5.65806 10.4046 5.63311 12.6997C5.60624 15.0005 7.58082 16.9616 9.91422 16.9501C12.238 16.9386 14.1128 15.0676 14.1224 12.7496H14.1243ZM44.4932 16.9501C46.8266 16.9635 48.8012 15.0081 48.7801 12.7054C48.759 10.4142 46.8439 8.51451 44.5392 8.49916C42.2193 8.48381 40.3157 10.349 40.2908 12.6594C40.2639 15.0254 42.1348 16.9367 44.4932 16.9501Z" fill="white"/>
</svg>
