<svg width="35" height="33" viewBox="0 0 35 33" fill="none" xmlns="http://www.w3.org/2000/svg">
	<path d="M24.1126 4.7736C23.1239 4.7736 22.1352 4.78942 21.1478 4.7591C20.9672 4.75383 20.7919 4.55345 20.6152 4.44272C20.7958 4.30694 20.9751 4.05515 21.1584 4.05251C23.1568 4.02351 25.1566 4.02351 27.1551 4.05251C27.3476 4.05515 27.5374 4.29507 27.7272 4.42426C27.5335 4.54159 27.3423 4.75251 27.1446 4.7591C26.1348 4.79338 25.1237 4.77492 24.1139 4.77492L24.1126 4.7736Z" fill="white"/>
	<path d="M3.85196 32.2038C1.23257 30.0287 1.1693 27.524 2.01298 25.6784C3.01091 23.4941 5.10299 22.454 7.95043 22.7796C7.95043 22.5186 7.95043 22.2655 7.95043 22.0137C7.95043 15.4461 7.95043 8.87984 7.95043 2.31227C7.95043 0.747495 8.67283 0.0211328 10.2323 0.0211328C17.6568 0.0198146 25.0812 0.0395885 32.5043 4.06648e-05C33.6921 -0.00655064 34.7546 0.788361 34.7467 2.22395C34.6992 10.0425 34.719 17.8625 34.7348 25.6811C34.7348 26.1886 34.5767 26.5366 34.2247 26.882C32.6414 28.4349 31.0806 30.0089 29.5132 31.5777C29.3484 31.7424 29.1955 31.9191 28.9305 32.2025C30.1776 32.2025 31.2863 32.2025 32.3936 32.2025C32.6349 32.2025 32.8906 32.1564 33.1134 32.221C33.2848 32.2711 33.4126 32.4635 33.5603 32.5927C33.4179 32.7219 33.294 32.8959 33.1266 32.9671C32.9776 33.0304 32.7812 32.9829 32.6045 32.9829C22.04 32.9829 11.4755 32.9829 0.910918 32.9829C0.822594 32.9829 0.721088 33.0119 0.649902 32.9776C0.427116 32.8682 0.216195 32.7351 0 32.6112C0.208285 32.4754 0.409979 32.2341 0.624855 32.2223C1.45668 32.1761 2.29245 32.2038 3.12823 32.2038C3.32465 32.2038 3.52107 32.2038 3.85064 32.2038H3.85196ZM33.9162 25.83C33.9412 25.5941 33.9742 25.4253 33.9742 25.2566C33.9768 17.5698 33.9795 9.88304 33.9729 2.19626C33.9729 1.19307 33.5655 0.800225 32.5769 0.800225C25.0878 0.797588 17.5988 0.797588 10.1097 0.800225C9.11973 0.800225 8.74798 1.19043 8.74666 2.20549C8.74402 4.3358 8.74666 6.46611 8.74666 8.59642C8.74666 13.2301 8.74402 17.8638 8.75325 22.4975C8.75325 22.7189 8.77698 23.0327 8.91671 23.1461C9.50334 23.618 10.1387 24.0306 10.6687 24.4037C10.9719 24.2679 11.2487 24.0398 11.5295 24.0346C13.3302 24.0016 15.131 24.0201 16.9317 24.0161C17.4551 24.0161 17.695 24.2929 17.7082 24.786C17.7214 25.2909 17.7121 25.7958 17.7121 26.3007C17.7108 27.2828 17.5566 27.4357 16.5613 27.4357C15.0058 27.4357 13.4515 27.4357 11.8841 27.4357C11.8578 27.8852 11.8353 28.2754 11.8077 28.7368C12.679 28.7368 13.5109 28.7118 14.3387 28.7539C14.551 28.7645 14.7527 28.9939 14.9596 29.123C14.7474 29.2562 14.5404 29.4908 14.3203 29.5053C13.5544 29.5528 12.7832 29.5093 12.0159 29.5357C11.834 29.5423 11.5901 29.6372 11.4886 29.7756C10.9033 30.5705 10.3536 31.3905 9.82895 32.1485H27.5859C27.5859 30.8025 27.6492 29.5053 27.5688 28.2174C27.4739 26.7014 28.3531 25.7193 29.9469 25.8142C31.2546 25.892 32.5703 25.83 33.9162 25.83ZM6.68226 32.2012C9.11445 32.2051 11.0918 30.2607 11.1103 27.8483C11.1288 25.4596 9.13291 23.4611 6.72049 23.4532C4.29489 23.4453 2.31618 25.395 2.30168 27.8087C2.28718 30.2172 4.26194 32.1959 6.68226 32.1999V32.2012ZM28.3637 31.2955C29.9377 29.7281 31.5526 28.1225 33.1266 26.5551C32.0271 26.5551 30.8209 26.5327 29.616 26.563C28.8923 26.5814 28.3953 26.9782 28.3756 27.5912C28.3347 28.8792 28.3637 30.1684 28.3637 31.2955ZM11.544 24.8216C11.544 25.2553 11.5256 25.6257 11.548 25.9948C11.577 26.4694 11.7734 26.708 12.3284 26.6816C13.4225 26.6302 14.5206 26.6658 15.6174 26.6658C16.0432 26.6658 16.4703 26.6658 16.8882 26.6658V24.8202H11.544V24.8216Z" fill="white"/>
	<path d="M21.3768 23.0946C18.2156 23.0946 15.0544 23.0946 11.8919 23.0946C10.985 23.0946 10.7543 22.8731 10.753 21.9767C10.749 18.5743 10.749 15.1705 10.753 11.7681C10.753 10.8967 10.9784 10.666 11.8287 10.666C18.1735 10.6634 24.5182 10.6634 30.863 10.666C31.6975 10.666 31.9269 10.8862 31.9282 11.7048C31.9335 15.1521 31.9335 18.598 31.9282 22.0453C31.9269 22.8613 31.683 23.0933 30.8604 23.0946C27.6992 23.0972 24.538 23.0946 21.3755 23.0946H21.3768ZM11.5466 13.354H31.1188V11.4161H11.5466V13.354ZM31.128 14.2056H20.3552V16.3385H31.128V14.2056ZM20.3512 19.3244H31.1148V17.1941H20.3512V19.3244ZM20.3446 22.2694H31.1385V20.1694H20.3446V22.2694ZM11.5677 19.3283H15.1177V17.2125H11.5677V19.3283ZM19.5168 17.1941H15.9772V19.3244H19.5168V17.1941ZM15.1586 16.3385C15.1586 15.7005 15.1705 15.1138 15.148 14.5285C15.1441 14.4099 15.0123 14.195 14.9371 14.1937C13.814 14.1713 12.6921 14.1792 11.5703 14.1792V16.3385H15.1573H15.1586ZM19.4904 16.3438V14.166C18.391 14.166 17.3443 14.1542 16.2989 14.1805C16.1684 14.1832 15.939 14.3783 15.9311 14.4956C15.8942 15.0993 15.914 15.7071 15.914 16.3438H19.4904ZM15.1217 20.1615H11.5795V22.2852H15.1217V20.1615ZM19.5234 20.1232C18.3844 20.1232 17.3139 20.114 16.2422 20.1364C16.1302 20.1391 15.9337 20.3276 15.9271 20.4383C15.8955 21.0447 15.9126 21.6524 15.9126 22.2549H19.522V20.1219L19.5234 20.1232Z" fill="white"/>
	<path d="M26.0873 6.08904C27.6231 6.08904 29.1589 6.08904 30.6947 6.08904C30.8476 6.08904 31.0282 6.04553 31.1481 6.11013C31.2997 6.19318 31.5041 6.37114 31.4988 6.49901C31.4935 6.62952 31.2721 6.83913 31.1244 6.8589C30.7368 6.91163 30.3374 6.87999 29.9419 6.87999C27.1551 6.87999 24.3683 6.87999 21.5815 6.87999C21.4273 6.87999 21.2546 6.92481 21.1254 6.86813C20.9382 6.78508 20.7827 6.6282 20.6152 6.50297C20.7932 6.36455 20.9698 6.10881 21.1504 6.10486C22.7956 6.07322 24.4408 6.0864 26.0873 6.0864V6.08904Z" fill="white"/>
	<path d="M26.0633 8.19829C27.6624 8.19829 29.2627 8.18379 30.8618 8.21411C31.0859 8.21806 31.306 8.43558 31.5275 8.55554C31.3126 8.69132 31.0977 8.94311 30.8816 8.94443C27.661 8.96947 24.4392 8.96947 21.2187 8.94443C21.0157 8.94311 20.814 8.68473 20.6123 8.54499C20.8298 8.4303 21.0447 8.21806 21.2635 8.21411C22.8626 8.18511 24.4629 8.19829 26.062 8.19829H26.0633Z" fill="white"/>
	<path d="M15.7694 5.26517C15.7259 5.32581 15.6337 5.45104 15.5414 5.57628C15.4056 5.47082 15.2632 5.37326 15.1367 5.25858C14.8836 5.03052 14.6661 4.66668 14.38 4.6034C14.1968 4.56253 13.7973 4.91978 13.7169 5.16893C13.6536 5.36535 13.8909 5.70678 14.0728 5.91507C14.1783 6.03635 14.4354 6.03503 14.6278 6.06931C15.6653 6.25782 16.1412 7.42316 15.486 8.23257C15.2237 8.55686 14.8915 8.82711 14.5804 9.1079C14.5276 9.15535 14.3694 9.17776 14.3378 9.14217C13.9094 8.65441 13.4783 8.16666 13.0947 7.64463C13.0367 7.56685 13.2212 7.31111 13.2924 7.13841C13.415 7.25442 13.5917 7.34934 13.6497 7.49171C13.8158 7.90037 14.0689 8.23125 14.521 8.0757C14.7649 7.99133 15.0431 7.67231 15.0905 7.4192C15.1802 6.94068 14.8124 6.73371 14.3721 6.67571C13.6998 6.58738 13.216 6.271 13.0802 5.56968C12.947 4.88155 13.2305 4.38984 13.8316 4.04841C13.9516 3.97986 14.0109 3.81244 14.1242 3.72412C14.2297 3.64107 14.4525 3.52243 14.4828 3.55406C14.9139 4.00886 15.3239 4.48344 15.7325 4.96065C15.7681 5.00151 15.751 5.08852 15.7708 5.26517H15.7694Z" fill="white"/>
	<path d="M4.9834 29.2088C5.19432 28.9557 5.31955 28.8054 5.44479 28.6551C5.59375 28.8028 5.80995 28.9241 5.87982 29.1034C6.10787 29.6873 6.47567 29.9576 6.95552 29.7809C7.42482 29.6096 7.62783 29.2101 7.42086 28.7883C7.29826 28.5365 6.93706 28.3124 6.64572 28.2504C5.82972 28.0751 5.32615 27.6836 5.17586 26.9572C5.02295 26.2243 5.3011 25.6864 6.02351 25.2039C6.17247 25.1037 6.23179 24.8744 6.34516 24.7149C6.44799 24.5699 6.56927 24.4393 6.68264 24.3022C6.80392 24.4275 6.93442 24.5461 7.04516 24.6806C7.20599 24.8783 7.31276 25.1446 7.5105 25.2804C7.98244 25.606 8.25532 26.0239 8.24741 26.5907C8.24478 26.7252 8.07472 26.9678 7.9864 26.9651C7.8348 26.9625 7.67001 26.8228 7.54478 26.7054C7.47623 26.6408 7.4815 26.5011 7.44986 26.3956C7.31277 25.929 6.9397 25.7326 6.54026 25.8842C6.27266 25.9857 5.97605 26.3218 5.91936 26.5987C5.83236 27.0231 6.13292 27.329 6.58245 27.4278C6.85796 27.4885 7.15326 27.5069 7.40372 27.6229C7.94553 27.8734 8.23027 28.3335 8.26059 28.9267C8.2896 29.5133 8.08131 30.0116 7.56587 30.3241C7.28113 30.4968 6.98452 30.6035 7.02538 31.0346C7.03461 31.1282 6.80655 31.3299 6.69318 31.3273C6.57718 31.3246 6.45326 31.1401 6.35571 31.0161C6.18565 30.8026 6.03537 30.5706 5.87059 30.3531C5.59112 29.9866 5.30637 29.6241 4.98472 29.2101L4.9834 29.2088Z" fill="white"/>
	</svg>
	