<svg width="35" height="32" viewBox="0 0 35 32" fill="none" xmlns="http://www.w3.org/2000/svg">
<path d="M27.9194 15.3428C27.9194 16.7618 27.9206 18.1819 27.9194 19.6009C27.917 20.9858 27.3467 22.0157 26.0883 22.6698C23.4218 24.056 20.7662 25.4628 18.1156 26.8781C17.6645 27.1188 17.2814 27.1152 16.8279 26.8769C14.1687 25.4774 11.5022 24.0912 8.82969 22.7173C7.53961 22.0546 6.90249 21.0588 6.92437 19.5729C6.96815 16.6912 6.94748 13.8071 6.92681 10.9254C6.92316 10.3855 7.08001 10.0402 7.56272 9.76178C10.5636 8.03033 13.5547 6.28308 16.5361 4.51758C16.9872 4.25008 17.3398 4.24157 17.797 4.50056C20.9267 6.26849 24.0662 8.01939 27.213 9.75449C27.7407 10.0451 27.9413 10.4232 27.9291 11.0178C27.8987 12.4587 27.9194 13.9007 27.9194 15.3416V15.3428ZM8.36158 13.1408C8.33726 13.3475 8.30928 13.4703 8.30928 13.5931C8.30684 15.6261 8.31295 17.6579 8.30444 19.6909C8.30079 20.5286 8.69596 21.0758 9.42793 21.4503C11.6202 22.5726 13.8015 23.7155 15.989 24.8475C16.1884 24.9509 16.3975 25.036 16.6808 25.1649C16.6808 22.6321 16.6893 20.2076 16.6638 17.7843C16.6626 17.6092 16.4595 17.3685 16.2868 17.2749C15.2351 16.6997 14.1651 16.1587 13.1024 15.6054C11.5436 14.7956 9.98481 13.9846 8.36036 13.1408H8.36158ZM18.1022 25.2962C20.7249 23.9101 23.2285 22.6005 25.7162 21.2618C26.2755 20.9603 26.4931 20.4228 26.4895 19.776C26.4761 17.7466 26.4859 15.7161 26.4822 13.6867C26.4822 13.5299 26.447 13.373 26.4239 13.1785C26.1855 13.2976 26.019 13.4071 25.8354 13.4666C25.2104 13.6673 25.0304 14.0868 25.0936 14.7178C25.1496 15.2796 25.0924 15.8523 25.1082 16.4189C25.1228 16.9077 24.9429 17.2408 24.4893 17.4585C23.8619 17.7588 23.2576 18.1065 22.6363 18.4227C21.8204 18.8385 21.3851 18.5783 21.3754 17.6737C21.3693 17.0937 21.3754 16.5137 21.3754 15.8279C20.2993 16.397 19.3193 16.9052 18.3539 17.439C18.2335 17.5059 18.1156 17.7029 18.1144 17.8403C18.0998 20.2806 18.1034 22.7221 18.1034 25.2974L18.1022 25.2962ZM20.5279 14.6813C20.455 14.5987 20.4209 14.5366 20.3699 14.5075C17.3897 12.838 14.4119 11.1662 11.4208 9.51617C11.2566 9.42498 10.9527 9.44443 10.7788 9.53684C10.0492 9.92593 9.34039 10.3527 8.63516 10.7844C8.15731 11.0774 8.16094 11.4495 8.65095 11.706C11.4828 13.1882 14.3195 14.6631 17.1611 16.127C17.3118 16.2049 17.5575 16.2413 17.6961 16.172C18.6421 15.6978 19.5722 15.1896 20.5279 14.6826V14.6813ZM14.9372 7.13908C15.1804 7.28498 15.3615 7.40049 15.5488 7.50506C18.1156 8.94105 20.7115 10.3296 23.2382 11.8349C24.2036 12.41 25.0255 12.5912 25.918 11.8471C26.1284 11.672 26.4117 11.4616 26.4445 11.2367C26.4676 11.075 26.1649 10.8002 25.9496 10.6786C23.6941 9.39944 21.4289 8.1349 19.1612 6.87766C18.4986 6.51045 17.8043 5.8794 17.1465 5.90736C16.4522 5.93776 15.7859 6.60894 15.1074 7.00168C15.0709 7.02356 15.0405 7.05639 14.9384 7.13908H14.9372ZM23.0351 13.3061C22.7859 13.159 22.5865 13.035 22.381 12.9207C19.6634 11.402 16.9313 9.91012 14.238 8.35012C13.5754 7.96589 13.1 7.98413 12.5942 8.53372C12.7425 8.62613 12.8847 8.72462 13.0367 8.80973C15.792 10.3478 18.5654 11.8568 21.2939 13.4423C21.9469 13.8217 22.4332 13.818 23.0351 13.3061ZM22.8454 16.6487C23.7999 16.3398 23.9458 15.9726 23.6102 14.7142C22.6679 15.0449 22.6095 15.192 22.8454 16.6487Z" fill="white"/>
<path d="M3.29112 11.8266C3.56591 11.6746 3.78599 11.4618 4.01944 11.4472C4.2991 11.429 4.71738 11.4946 4.8414 11.6794C4.96785 11.8679 4.92041 12.3956 4.75626 12.5172C4.00848 13.0777 3.21328 13.5848 2.3889 14.0225C2.198 14.1234 1.71287 13.969 1.55237 13.7744C1.03926 13.1543 0.612479 12.4637 0.160162 11.7949C-0.0854512 11.4326 -0.0574913 11.0849 0.306064 10.8186C0.672052 10.5499 1.00643 10.6483 1.28244 10.9779C1.4478 11.1748 1.59493 11.3876 1.77367 11.6235C2.1044 10.7857 2.36337 9.97473 2.73301 9.21722C5.30222 3.95357 9.5141 0.79951 15.3042 0.118603C23.6612 -0.863849 30.4873 4.37062 32.5263 11.6186C32.5677 11.7658 32.6017 11.9141 32.6394 12.0624C32.7695 12.5707 32.6917 13.0279 32.1178 13.1373C31.618 13.2321 31.4296 12.8431 31.28 12.4102C30.9104 11.3438 30.6064 10.2337 30.0799 9.2464C27.6469 4.68554 23.8302 2.08472 18.6869 1.48163C11.9423 0.691294 5.33992 5.00411 3.34826 11.48C3.31786 11.5773 3.31422 11.6831 3.29234 11.8266H3.29112Z" fill="white"/>
<path d="M31.1712 19.4767C30.9195 19.6214 30.7116 19.7369 30.5073 19.8585C30.1316 20.0822 29.7644 19.9788 29.6173 19.6347C29.5152 19.3952 29.5553 18.8991 29.7243 18.7739C30.4733 18.217 31.2697 17.71 32.1002 17.2844C32.2971 17.1835 32.7969 17.3768 32.9744 17.5872C33.4498 18.1501 33.8182 18.8031 34.2462 19.4086C34.5478 19.8354 34.5733 20.233 34.1101 20.5309C33.6529 20.8251 33.3331 20.5418 33.068 20.1795C32.9549 20.025 32.8443 19.867 32.7823 19.7794C32.2278 21.0598 31.7779 22.4119 31.091 23.629C28.4366 28.3297 24.3707 31.119 19.0316 31.7379C10.7185 32.7021 3.92275 27.3728 1.89706 20.4433C1.76452 19.9886 1.69644 19.5363 2.23752 19.3478C2.78832 19.1569 3.07771 19.4937 3.23942 19.9995C4.96722 25.4225 8.61009 28.8513 14.1412 30.1049C18.9343 31.1907 23.2143 29.9213 26.8985 26.7064C28.9862 24.885 30.3748 22.5906 31.1554 19.9302C31.1797 19.8475 31.198 19.7624 31.2077 19.6761C31.2125 19.636 31.1931 19.5922 31.1712 19.4755V19.4767Z" fill="white"/>
</svg>
