<svg width="31" height="18" viewBox="0 0 31 18" fill="none" xmlns="http://www.w3.org/2000/svg">
<path d="M15.2346 17.874C12.5979 17.8645 10.1908 17.0425 7.91705 15.7813C4.98603 14.1562 2.48271 12.0053 0.271827 9.49821C-0.0377541 9.14767 -0.116818 8.82285 0.213719 8.4523C3.37335 4.91165 6.95687 1.97968 11.5815 0.552746C14.9307 -0.480778 18.1561 -0.0159299 21.2719 1.44815C24.7135 3.06559 27.574 5.44794 30.0907 8.2675C30.6241 8.86476 30.6146 9.01717 30.0621 9.63443C27.4883 12.5131 24.5515 14.9164 21.0195 16.5443C19.2782 17.3473 17.0378 17.8779 15.2336 17.8712L15.2346 17.874ZM29.061 8.98669C29.0286 8.90953 29.0219 8.87714 29.0028 8.85428C28.9324 8.76855 28.8609 8.68377 28.7847 8.60281C26.5233 6.18998 24.0057 4.12007 21.0147 2.65123C17.435 0.893762 13.8277 0.720397 10.1537 2.32546C7.29408 3.57426 4.86125 5.42793 2.64941 7.595C2.21218 8.02365 1.80163 8.47897 1.35965 8.94096C3.93441 11.7234 6.74826 14.0733 10.2051 15.5717C13.3971 16.9548 16.6006 17.0491 19.8431 15.7394C23.4837 14.2686 26.41 11.8367 29.061 8.98859V8.98669Z" fill="#7E7E7E"/>
<path d="M21.2203 8.93032C21.1841 12.4757 18.0588 15.2715 14.5514 14.8638C11.6052 14.5218 9.30667 11.988 9.28666 9.05987C9.28285 8.52072 9.52766 8.22638 9.94584 8.28925C10.3602 8.35117 10.4535 8.64932 10.4688 9.01796C10.5583 11.266 11.9224 12.9606 14.1161 13.5617C16.6937 14.2675 19.5314 12.3948 19.9124 9.74666C20.2087 7.68438 19.5009 6.03455 17.7625 4.93149C16.0222 3.82652 14.2323 3.91606 12.4854 5.03341C12.2625 5.17534 11.8986 5.2525 11.6585 5.1763C11.2461 5.04675 11.2651 4.49046 11.6747 4.16849C12.4377 3.56933 13.316 3.20927 14.2657 3.05495C17.3024 2.56248 20.2011 4.45045 20.9822 7.43195C21.1098 7.91871 21.1441 8.42928 21.2222 8.92842L21.2203 8.93032Z" fill="#7E7E7E"/>
<path d="M15.2525 5.98421C16.908 5.94325 18.2626 7.4502 18.1968 9.04668C18.1321 10.6184 16.8099 11.9167 15.1839 11.911C13.5779 11.9053 12.2091 10.4679 12.2643 8.85808C12.3196 7.26064 13.616 5.97374 15.2525 5.98421ZM15.2315 7.14824C14.2752 7.14824 13.4331 7.98173 13.4283 8.93333C13.4236 9.88589 14.2628 10.7175 15.2287 10.7184C16.1936 10.7194 17.0338 9.88875 17.0319 8.93619C17.03 7.98554 16.1869 7.14919 15.2315 7.14824Z" fill="#7E7E7E"/>
<path d="M10.4394 7.14904C10.1051 7.08808 9.89264 6.91566 9.89454 6.54893C9.89645 6.19648 10.1508 5.96692 10.5137 5.99645C10.8785 6.02598 11.0529 6.2403 11.0357 6.59656C11.0176 6.96329 10.7842 7.11665 10.4394 7.14999V7.14904Z" fill="#7E7E7E"/>
</svg>
