<svg width="32" height="32" viewBox="0 0 32 32" fill="none" xmlns="http://www.w3.org/2000/svg">
<path d="M5.42387 7.86592C5.42387 6.77427 5.46994 5.75612 5.41508 4.74236C5.27465 2.18931 7.4481 -0.0389799 10.1416 0.000517218C13.7347 0.05318 17.3289 0.0136828 20.9232 0.0136828C23.3171 0.0136828 25.0561 1.37743 25.6014 3.70227C25.6705 3.99631 25.6617 4.31228 25.6639 4.61839C25.6705 5.66945 25.6661 6.72051 25.6661 7.86592C25.9273 7.86592 26.1609 7.87799 26.3935 7.86373C28.8972 7.71452 31.1518 9.86162 31.0992 12.5672C31.0542 14.881 31.0904 17.1971 31.0893 19.5121C31.0893 21.8764 29.6729 23.6724 27.3667 24.1629C26.8401 24.2748 26.2783 24.2254 25.6661 24.2528C25.6661 24.4459 25.6661 24.6182 25.6661 24.7904C25.6661 26.005 25.6749 27.2184 25.6628 28.4329C25.6486 29.8779 24.501 31.088 23.0615 31.0935C18.0432 31.1133 13.0249 31.1155 8.00653 31.0913C6.58793 31.0847 5.44471 29.8713 5.42935 28.4571C5.41618 27.2436 5.42607 26.0291 5.42497 24.8146C5.42497 24.6401 5.42497 24.4657 5.42497 24.2199C5.07608 24.2199 4.77436 24.2221 4.47264 24.2199C2.01285 24.1936 0.0127656 22.1924 0.00398846 19.7315C-0.00478867 17.2871 0.00398632 14.8426 0.00179204 12.3982C-0.000402246 9.76288 2.24654 7.78803 4.5264 7.86483C4.79849 7.8736 5.07169 7.86592 5.42497 7.86592H5.42387ZM5.39534 19.3618C5.18689 19.3618 5.0267 19.3662 4.86761 19.3618C4.28284 19.342 3.94273 18.9767 3.97016 18.4029C3.99649 17.8565 4.35526 17.5822 5.05523 17.5822C12.0484 17.5822 19.0405 17.5822 26.0337 17.5822C26.1313 17.5822 26.2279 17.5789 26.3244 17.5866C26.7896 17.6228 27.1133 17.975 27.1209 18.45C27.1286 18.9547 26.8072 19.3245 26.32 19.3574C26.1182 19.3706 25.9141 19.3596 25.7111 19.3596V22.4393C25.9821 22.4393 26.2081 22.4436 26.433 22.4393C28.115 22.3998 29.2461 21.2489 29.2472 19.5724C29.2494 17.2092 29.2494 14.8459 29.2439 12.4827C29.2439 12.2271 29.234 11.9616 29.1671 11.7169C28.8083 10.4036 27.765 9.65097 26.3014 9.64988C21.8656 9.64659 17.431 9.64878 12.9952 9.64878C10.2754 9.64878 7.5567 9.66853 4.83689 9.6422C2.94322 9.62354 1.76819 11.0334 1.82085 12.6275C1.89765 14.9392 1.89436 17.2586 1.82085 19.5702C1.77257 21.104 3.09902 22.7892 5.39315 22.3723V19.364L5.39534 19.3618ZM23.8844 19.3958H7.23853C7.22537 19.5198 7.20782 19.6141 7.20782 19.7074C7.20673 22.5391 7.20233 25.3708 7.20891 28.2025C7.2111 28.9256 7.56549 29.2591 8.2907 29.2591C13.0644 29.2602 17.838 29.2591 22.6106 29.2591C23.5947 29.2591 23.8833 28.9749 23.8833 28.0018C23.8833 25.316 23.8833 22.6302 23.8833 19.9433C23.8833 19.7699 23.8833 19.5966 23.8833 19.3958H23.8844ZM7.29888 7.83082H23.8613C23.8701 7.64101 23.8844 7.48302 23.8833 7.32503C23.8734 6.30689 23.9184 5.28325 23.8339 4.27059C23.7055 2.74008 22.3188 1.82068 21.0044 1.83713C17.3158 1.88541 13.625 1.85139 9.93532 1.85578C8.65495 1.85688 7.47114 2.69729 7.3307 3.94364C7.18698 5.21413 7.29888 6.51425 7.29888 7.83082Z" fill="white"/>
<path d="M6.29249 13.5315C5.80755 13.5315 5.32262 13.5413 4.83878 13.5293C4.30556 13.5161 3.96985 13.1639 3.96875 12.6439C3.96875 12.1227 4.30338 11.7618 4.8344 11.7563C5.81963 11.7453 6.80486 11.7453 7.79009 11.7563C8.3233 11.7618 8.66013 12.1205 8.66013 12.6406C8.66013 13.1617 8.3255 13.5172 7.79448 13.5293C7.29419 13.5413 6.79278 13.5315 6.29249 13.5315Z" fill="white"/>
<path d="M15.5059 23.2493C14.7302 23.2493 13.9545 23.2547 13.1788 23.2482C12.5699 23.2427 12.2221 22.9059 12.2276 22.3452C12.2331 21.8098 12.5787 21.4741 13.1591 21.4719C14.7433 21.4664 16.3265 21.4664 17.9108 21.4719C18.5197 21.4741 18.8675 21.8142 18.862 22.3748C18.8565 22.9102 18.5109 23.2438 17.9305 23.2493C17.1219 23.2569 16.3145 23.2515 15.5059 23.2515V23.2493Z" fill="white"/>
<path d="M15.5467 27.1351C14.7545 27.1351 13.9624 27.1406 13.1703 27.1329C12.5646 27.1274 12.2179 26.7851 12.2267 26.2223C12.2344 25.6891 12.5811 25.3588 13.1659 25.3567C14.7501 25.3512 16.3333 25.3512 17.9176 25.3567C18.5232 25.3588 18.8699 25.7044 18.8611 26.2673C18.8535 26.8005 18.5068 27.1285 17.9209 27.134C17.1287 27.1406 16.3366 27.1362 15.5445 27.1362L15.5467 27.1351Z" fill="white"/>
</svg>
