<svg width="15" height="21" viewBox="0 0 15 21" fill="none" xmlns="http://www.w3.org/2000/svg">
<path d="M6.81753 0C11.0036 0.0024053 14.1369 2.88316 14.4904 6.58572C14.6219 7.96155 14.2074 9.19387 13.6831 10.4101C12.4676 13.23 10.7839 15.778 9.04484 18.2907C8.62712 18.8937 8.19657 19.4894 7.75159 20.0722C7.4405 20.4803 7.05886 20.4876 6.7582 20.0787C4.45552 16.9478 2.24425 13.7583 0.723295 10.1568C0.400985 9.3927 0.137203 8.56769 0.0441984 7.74828C-0.189918 5.68373 0.517241 3.87975 1.89949 2.36121C3.32904 0.791345 5.14745 0.034476 6.81753 0ZM7.15026 18.8415C7.20799 18.8351 7.26492 18.8287 7.32264 18.8223C8.20459 17.505 9.11139 16.2045 9.96126 14.8672C11.1198 13.0448 12.2142 11.1847 12.9767 9.15057C13.3199 8.23415 13.4834 7.30009 13.3215 6.32675C12.733 2.79256 9.46978 0.744842 6.39179 1.18742C2.55052 1.74064 0.23983 5.74065 1.44168 8.92848C2.05102 10.5456 2.82232 12.077 3.73072 13.537C4.84117 15.3234 6.00855 17.0752 7.15106 18.8415H7.15026Z" fill="#27255C"/>
<path d="M7.27234 2.14746C10.1371 2.15788 12.3972 4.45896 12.382 7.35013C12.3676 10.1146 10.0096 12.4285 7.22905 12.4077C4.37636 12.386 2.10575 10.0657 2.12019 7.18737C2.13382 4.41085 4.45814 2.13784 7.27234 2.14826V2.14746ZM7.26112 3.27795C5.05385 3.27475 3.25148 5.05627 3.24426 7.24831C3.23705 9.45798 5.05786 11.282 7.26112 11.2716C9.46037 11.2612 11.2579 9.46038 11.2579 7.26915C11.2579 5.07311 9.46357 3.28116 7.26192 3.27875L7.26112 3.27795Z" fill="#27255C"/>
</svg>
