<svg width="26" height="26" viewBox="0 0 26 26" fill="none" xmlns="http://www.w3.org/2000/svg">
<path d="M4.51783 6.55286C4.51783 5.64357 4.55621 4.7955 4.51052 3.95108C4.39354 1.8236 6.20392 -0.0324684 8.44746 0.000430818C11.4404 0.0442965 14.4342 0.0113972 17.428 0.0113972C19.4221 0.0113972 20.8706 1.14734 21.3248 3.08382C21.3824 3.32874 21.375 3.59193 21.3769 3.8469C21.3823 4.72239 21.3787 5.59787 21.3787 6.55195C21.5962 6.55195 21.7908 6.562 21.9846 6.55012C24.07 6.42584 25.948 8.21428 25.9042 10.4679C25.8667 12.3952 25.8969 14.3244 25.8959 16.2527C25.8959 18.222 24.7161 19.718 22.7952 20.1265C22.3565 20.2198 21.8886 20.1786 21.3787 20.2015C21.3787 20.3623 21.3787 20.5058 21.3787 20.6493C21.3787 21.6609 21.386 22.6717 21.3759 23.6833C21.3641 24.8869 20.4082 25.8949 19.2092 25.8994C15.0291 25.9159 10.8491 25.9177 6.66907 25.8976C5.48744 25.8921 4.53519 24.8814 4.5224 23.7034C4.51143 22.6927 4.51966 21.681 4.51875 20.6694C4.51875 20.5241 4.51875 20.3788 4.51875 20.1741C4.22814 20.1741 3.97682 20.1759 3.72551 20.1741C1.67662 20.1521 0.0106316 18.4852 0.00332064 16.4354C-0.0039903 14.3993 0.00332443 12.3632 0.0014967 10.3271C-0.000331038 8.13203 1.87127 6.48707 3.77029 6.55104C3.99693 6.55835 4.22448 6.55195 4.51875 6.55195L4.51783 6.55286ZM4.49407 16.1284C4.32043 16.1284 4.18701 16.132 4.0545 16.1284C3.56741 16.1119 3.28411 15.8076 3.30696 15.3297C3.32889 14.8745 3.62772 14.6461 4.21077 14.6461C10.0358 14.6461 15.8598 14.6461 21.6848 14.6461C21.7662 14.6461 21.8466 14.6433 21.927 14.6497C22.3145 14.6799 22.5841 14.9732 22.5905 15.3689C22.5969 15.7893 22.3291 16.0973 21.9234 16.1247C21.7552 16.1357 21.5852 16.1265 21.4162 16.1265V18.6918C21.6419 18.6918 21.8301 18.6954 22.0175 18.6918C23.4184 18.6589 24.3606 17.7002 24.3616 16.3038C24.3634 14.3354 24.3634 12.3669 24.3588 10.3984C24.3588 10.1855 24.3506 9.96433 24.2949 9.76054C23.996 8.66664 23.1269 8.03973 21.9078 8.03881C18.2131 8.03607 14.5192 8.0379 10.8244 8.0379C8.55896 8.0379 6.29439 8.05435 4.02891 8.03242C2.45158 8.01688 1.47282 9.1912 1.51669 10.5191C1.58066 12.4446 1.57791 14.3765 1.51669 16.302C1.47648 17.5796 2.58134 18.9833 4.49224 18.636V16.1302L4.49407 16.1284ZM19.8946 16.1567H6.02937C6.0184 16.26 6.00378 16.3386 6.00378 16.4162C6.00287 18.7749 5.99921 21.1336 6.0047 23.4923C6.00652 24.0946 6.3017 24.3724 6.90577 24.3724C10.882 24.3733 14.8582 24.3724 18.8336 24.3724C19.6533 24.3724 19.8937 24.1357 19.8937 23.3251C19.8937 21.0879 19.8937 18.8508 19.8937 16.6127C19.8937 16.4683 19.8937 16.3239 19.8937 16.1567H19.8946ZM6.07963 6.52362H19.8754C19.8827 6.36552 19.8946 6.23392 19.8937 6.10233C19.8854 5.25426 19.9229 4.40162 19.8525 3.55812C19.7456 2.28327 18.5905 1.51745 17.4957 1.53116C14.4232 1.57137 11.349 1.54304 8.27566 1.5467C7.20917 1.54761 6.22311 2.24763 6.10613 3.28579C5.98642 4.34405 6.07963 5.42698 6.07963 6.52362Z" fill="#7E7E7E"/>
<path d="M5.24172 11.2721C4.83779 11.2721 4.43386 11.2803 4.03085 11.2703C3.58671 11.2593 3.30707 10.966 3.30615 10.5328C3.30615 10.0987 3.58488 9.79804 4.0272 9.79348C4.84785 9.78434 5.6685 9.78434 6.48916 9.79348C6.9333 9.79804 7.21385 10.0969 7.21385 10.5301C7.21385 10.9641 6.93512 11.2602 6.49281 11.2703C6.07609 11.2803 5.65845 11.2721 5.24172 11.2721Z" fill="#7E7E7E"/>
<path d="M12.9153 19.3652C12.2692 19.3652 11.6231 19.3698 10.9769 19.3643C10.4697 19.3598 10.1801 19.0792 10.1846 18.6122C10.1892 18.1662 10.4771 17.8866 10.9605 17.8848C12.2801 17.8802 13.5988 17.8802 14.9185 17.8848C15.4257 17.8866 15.7153 18.1699 15.7108 18.6369C15.7062 19.0829 15.4183 19.3607 14.9349 19.3652C14.2614 19.3716 13.5888 19.3671 12.9153 19.3671V19.3652Z" fill="#7E7E7E"/>
<path d="M12.9491 22.6032C12.2893 22.6032 11.6295 22.6078 10.9697 22.6014C10.4652 22.5968 10.1764 22.3117 10.1837 21.8429C10.1901 21.3987 10.4789 21.1237 10.966 21.1218C12.2856 21.1173 13.6043 21.1173 14.924 21.1218C15.4284 21.1237 15.7172 21.4115 15.7099 21.8803C15.7035 22.3245 15.4147 22.5977 14.9267 22.6023C14.2669 22.6078 13.6071 22.6041 12.9473 22.6041L12.9491 22.6032Z" fill="#7E7E7E"/>
</svg>
