<svg width="38" height="32" viewBox="0 0 38 32" fill="none" xmlns="http://www.w3.org/2000/svg">
	<path d="M27.5881 25.5883C25.6005 25.5883 23.6114 25.565 21.6253 25.6057C21.1451 25.6159 20.6155 25.7425 20.2008 25.9782C16.9152 27.8378 13.6544 29.7381 10.382 31.621C9.27756 32.2569 8.78284 32.1186 8.1397 31.0084C7.19391 29.3744 6.24229 27.7447 5.3125 26.1019C5.11752 25.7571 4.91818 25.5781 4.4802 25.5752C2.38491 25.5635 2.12881 25.3758 2.24958 23.282C2.34998 21.5359 2.01532 19.9921 0.976399 18.5865C0.676655 18.1805 0.445299 17.7207 0.208123 17.2711C-0.167285 16.561 -0.0494242 15.8335 0.68102 15.5512C2.08371 15.0085 2.37035 14.0452 2.24813 12.6702C2.1259 11.2995 2.22048 9.90847 2.22194 8.52615C2.22339 7.14238 2.59007 6.78007 3.99858 6.77861C7.68426 6.77861 11.3685 6.79171 15.0542 6.76115C15.5329 6.75679 16.0625 6.61128 16.4802 6.3741C19.9534 4.40394 23.4048 2.3974 26.8621 0.401049C28.0101 -0.261007 28.4888 -0.134417 29.1538 1.01363C30.1607 2.75098 31.1793 4.48252 32.1585 6.23587C32.3942 6.65784 32.6591 6.81208 33.132 6.78443C35.268 6.66221 35.575 7.10455 35.4091 9.0718C35.2447 11.0158 35.7001 12.7138 36.8089 14.3188C37.6281 15.5061 37.4419 16.0299 36.1396 16.7284C35.5998 17.0179 35.4004 17.354 35.4135 17.9725C35.4557 19.9834 35.4339 21.9972 35.4266 24.0095C35.4222 25.1649 34.9988 25.581 33.8435 25.5839C31.7584 25.5883 29.6733 25.5839 27.5881 25.5839V25.5883ZM34.2131 24.3806V8.00087H3.45147V24.3791H34.2145L34.2131 24.3806ZM27.8879 1.15186C24.7115 2.98671 21.5787 4.79827 18.4459 6.60837C18.4867 6.70877 18.526 6.81062 18.5667 6.91102C19.1662 6.73642 19.8166 6.65639 20.355 6.36828C21.8886 5.54908 23.383 4.65276 24.8817 3.76953C25.3517 3.49161 25.6893 3.49598 26.0603 3.96306C26.6453 4.69932 27.236 4.84192 28.1192 4.48106C28.6111 4.28026 28.8919 4.40831 29.1276 4.84046C29.3939 5.32791 29.7169 5.78771 29.9541 6.28826C30.1898 6.78734 30.5172 6.8761 31.0745 6.67676C30.0137 4.83755 28.9792 3.04345 27.8893 1.15332L27.8879 1.15186ZM9.39542 30.8498C12.3914 29.1168 15.3248 27.4217 18.2568 25.7265L18.1331 25.4239C17.4681 25.6363 16.7595 25.7614 16.1484 26.0786C14.8825 26.7349 13.6646 27.4842 12.4365 28.2132C11.9476 28.5042 11.5708 28.5304 11.2026 28.0051C10.8068 27.4406 10.2088 27.2383 9.53366 27.3751C8.41762 27.6021 8.41907 27.6137 7.84723 26.6214C7.7512 26.454 7.64061 26.2911 7.56495 26.115C7.34669 25.6043 6.98438 25.4675 6.41108 25.6712C7.40053 27.3867 8.37688 29.0775 9.39688 30.8484L9.39542 30.8498ZM28.79 6.75242C28.6052 6.01761 28.2968 5.6844 27.5198 5.78189C27.0338 5.843 26.3732 5.72805 26.0254 5.42394C25.3444 4.82882 24.8613 5.08346 24.2677 5.47196C23.6304 5.88957 22.9508 6.2446 22.2902 6.62729C22.315 6.66948 22.3412 6.71022 22.3659 6.75242H28.79ZM8.68681 25.6232C8.96472 26.2343 8.96618 26.2416 9.46672 26.1936C10.299 26.115 11.0484 26.2969 11.7104 26.8324C11.8356 26.9328 12.0873 27.0303 12.1964 26.9721C12.9298 26.585 13.6399 26.1558 14.3572 25.7396C14.3397 25.7003 14.3237 25.6625 14.3063 25.6232H8.68681ZM2.17829 18.3246V16.0125C1.80142 16.2278 1.49877 16.401 1.16119 16.5945C1.49295 17.1591 1.78978 17.6625 2.17829 18.3246ZM36.1032 15.3912C35.917 15.0681 35.7569 14.7888 35.4863 14.3202V15.768C35.7409 15.6123 35.9126 15.5076 36.1032 15.3912Z" fill="white"/>
	<path d="M18.8537 8.71676C22.6587 8.71676 26.4637 8.72695 30.2687 8.70658C30.9162 8.70367 31.2479 8.87391 31.312 9.57526C31.3789 10.3144 31.9289 10.8092 32.7205 10.9066C33.2938 10.9779 33.5018 11.2369 33.4975 11.8088C33.48 14.7175 33.4815 17.6247 33.4975 20.5334C33.5004 21.1038 33.2923 21.3438 32.7074 21.4108C31.9027 21.5024 31.4022 22.0306 31.3018 22.8426C31.2305 23.4217 30.9496 23.6356 30.3953 23.6312C28.7961 23.6196 27.1956 23.6283 25.5965 23.6283C19.6103 23.6283 13.6242 23.6239 7.638 23.6341C6.94685 23.6341 6.44194 23.6036 6.35754 22.684C6.2877 21.923 5.67366 21.4675 4.8952 21.3977C4.35683 21.3482 4.19531 21.0732 4.19531 20.5887C4.19968 17.632 4.20259 14.6753 4.19531 11.7186C4.19531 11.2093 4.42376 10.9867 4.91703 10.9125C5.79152 10.7815 6.31971 10.3072 6.39974 9.47922C6.46376 8.8128 6.81007 8.70803 7.36882 8.70949C11.1986 8.72113 15.0268 8.71531 18.8566 8.71531L18.8537 8.71676ZM30.1101 9.88082H25.8002C19.961 9.88082 14.1218 9.88518 8.28114 9.87354C7.81261 9.87354 7.55652 9.96085 7.28442 10.4367C6.95703 11.01 6.39101 11.493 5.82935 11.867C5.4976 12.0882 5.35209 12.2424 5.35355 12.6294C5.36664 15.0041 5.36664 17.3788 5.35355 19.7535C5.35209 20.1114 5.49469 20.2496 5.79734 20.4533C6.35754 20.8302 6.94394 21.2929 7.26696 21.8648C7.5507 22.3668 7.8228 22.4686 8.32189 22.4672C13.6285 22.4541 18.9352 22.4599 24.2403 22.4599C26.0097 22.4599 27.7776 22.4686 29.547 22.4482C29.7754 22.4453 30.1494 22.3377 30.2047 22.1863C30.5786 21.1736 31.3178 20.5843 32.3203 20.2496C32.3203 17.7426 32.3203 15.2733 32.3203 12.8026C32.3203 12.6818 32.3494 12.5494 32.313 12.4417C32.2563 12.2788 32.1865 12.0358 32.0642 11.9936C31.0326 11.6444 30.4549 10.8834 30.1072 9.88082H30.1101Z" fill="white"/>
	<path d="M18.8712 21.5797C15.8811 21.5971 13.4351 19.2035 13.4075 16.2352C13.3798 13.2217 15.804 10.7641 18.8087 10.7569C21.8192 10.7481 24.2885 13.1926 24.2812 16.1741C24.2739 19.1453 21.8541 21.5622 18.8698 21.5797H18.8712ZM18.8159 20.4127C21.1542 20.4258 23.0735 18.5473 23.1142 16.209C23.155 13.9056 21.2212 11.9384 18.8989 11.9209C16.5213 11.9035 14.5715 13.814 14.5715 16.1624C14.5715 18.4978 16.4689 20.3996 18.8159 20.4112V20.4127Z" fill="white"/>
	<path d="M11.3659 16.1972C11.3528 17.178 10.5889 17.9142 9.59655 17.9026C8.62311 17.8909 7.86065 17.111 7.8752 16.1405C7.88976 15.1947 8.71332 14.3915 9.6533 14.409C10.5991 14.4264 11.379 15.2413 11.3659 16.1972ZM9.63875 15.3097C9.35501 15.7287 9.08 15.9601 9.08146 16.19C9.08146 16.3719 9.42049 16.6876 9.61401 16.6934C9.80462 16.6978 10.1524 16.3908 10.1611 16.2103C10.1713 15.9804 9.90648 15.7404 9.63875 15.3111V15.3097Z" fill="white"/>
	<path d="M28.0461 17.9009C27.0508 17.8966 26.3218 17.1574 26.3262 16.1548C26.3306 15.1756 27.1047 14.3986 28.0679 14.4073C29.0093 14.416 29.8256 15.2396 29.8198 16.1752C29.814 17.1181 29.005 17.9053 28.0461 17.9009ZM28.9031 16.1767C28.4884 15.8944 28.2585 15.6194 28.0257 15.6179C27.8511 15.6179 27.5455 15.9642 27.5368 16.165C27.5295 16.3469 27.8438 16.6903 28.0213 16.6947C28.2512 16.7005 28.487 16.4386 28.9017 16.1767H28.9031Z" fill="white"/>
	<path d="M18.9409 19.9802C18.7357 19.9132 18.5451 19.903 18.5233 19.8361C18.2759 19.078 17.4261 18.9587 17.0158 18.3869C16.8907 18.2137 16.7248 18.0056 16.7306 17.8179C16.7393 17.5517 16.8892 17.2897 16.978 17.0264C17.237 17.1311 17.6429 17.1661 17.7302 17.3509C18.0431 18.0158 18.5684 18.141 19.1708 18.0129C19.4239 17.9591 19.6262 17.6695 19.8517 17.4876C19.6742 17.2839 19.5345 17.0031 19.3105 16.894C18.97 16.7295 18.5684 16.6961 18.1988 16.5855C17.4465 16.3585 16.898 15.9074 16.8165 15.0868C16.735 14.2748 17.1468 13.7205 17.8394 13.3203C18.0387 13.2054 18.142 12.9347 18.321 12.7703C18.4854 12.619 18.6848 12.424 18.8798 12.4124C19.034 12.4036 19.2159 12.6292 19.3643 12.7718C19.5549 12.9566 19.7164 13.169 19.9027 13.3581C20.1864 13.6463 20.5633 13.882 20.7408 14.2239C20.8543 14.4407 20.6782 14.8089 20.6317 15.1086C20.3494 15.0169 19.9594 15.0111 19.8037 14.8161C19.3948 14.3069 18.9511 14.093 18.3661 14.4029C18.1886 14.496 18.0169 14.7594 18.0053 14.9544C17.9965 15.0999 18.2206 15.3327 18.3908 15.4025C18.7444 15.548 19.1329 15.6019 19.5025 15.7095C20.457 15.9904 20.9532 16.5273 21.026 17.3392C21.0973 18.1308 20.7481 18.6022 19.7892 19.0824C19.6218 19.1668 19.5156 19.3719 19.3788 19.5189C19.229 19.6804 19.0762 19.839 18.9409 19.9802Z" fill="white"/>
	</svg>
	