<svg width="21" height="21" viewBox="0 0 21 21" fill="none" xmlns="http://www.w3.org/2000/svg">
<path d="M10.1753 10.8412C8.05537 10.794 6.35495 9.0511 6.40539 6.97601C6.45663 4.85049 8.21789 3.15567 10.3226 3.20771C12.3921 3.25895 14.1045 5.03782 14.0533 7.08329C13.9996 9.20081 12.26 10.8876 10.1761 10.8412H10.1753ZM10.1305 9.63792C11.5483 9.71077 12.7563 8.59477 12.8492 7.12652C12.9365 5.74473 11.7564 4.47262 10.3274 4.40937C8.91119 4.34613 7.70152 5.46773 7.60865 6.92958C7.51979 8.31938 8.67902 9.56347 10.1313 9.63792H10.1305Z" fill="#27255C"/>
<path d="M10.273 9.46287e-07C15.9346 0.00240267 20.4971 4.6025 20.4923 10.3026C20.4875 15.9314 15.8754 20.4963 10.1993 20.4923C4.55127 20.4883 -0.00639785 15.8754 6.7417e-06 10.1689C0.00641134 4.56728 4.62252 -0.00240078 10.273 9.46287e-07ZM3.74349 16.4886C5.10447 13.7931 7.21158 12.2456 10.2442 12.244C13.2935 12.2424 15.4047 13.8067 16.7496 16.4854C19.8775 13.388 20.3602 7.83122 16.8745 4.11095C13.2575 0.252182 7.3781 0.211352 3.72988 3.98846C0.164925 7.67991 0.550802 13.312 3.74349 16.4886ZM15.7505 17.3925C15.2197 15.4919 13.047 13.1759 9.65013 13.4408C7.50699 13.6082 5.04202 15.5776 4.75862 17.4197C8.09461 20.02 12.7516 19.8182 15.7505 17.3925Z" fill="#27255C"/>
</svg>
