<svg width="32" height="32" viewBox="0 0 32 32" fill="none" xmlns="http://www.w3.org/2000/svg">
<path d="M27.9848 6.28814C27.2223 6.95081 26.5497 7.54766 25.864 8.13024C19.5631 13.4887 12.7433 18.1033 5.61189 22.2724C4.56631 22.8835 3.51415 23.4836 2.45651 24.075C1.56453 24.5742 0.650612 24.3471 0.201881 23.5352C-0.234782 22.7464 0.0493762 21.8643 0.933672 21.3705C5.88727 18.6036 10.7015 15.6127 15.3348 12.3345C18.7172 9.94162 21.9922 7.41051 25.0993 4.66656C25.2518 4.53162 25.3966 4.3857 25.6468 4.14762C24.9677 4.14762 24.4103 4.16407 23.8552 4.14323C23.1629 4.1169 22.6538 3.78885 22.3927 3.13386C22.1557 2.5403 22.2917 1.86117 22.7964 1.46291C23.0575 1.25665 23.424 1.07672 23.7454 1.07123C25.7038 1.03503 27.6622 1.046 29.6217 1.05697C30.4303 1.06136 31.0809 1.72074 31.0875 2.55676C31.1029 4.48334 31.1062 6.40992 31.0864 8.33541C31.0776 9.20763 30.3875 9.82313 29.5043 9.81435C28.6661 9.80667 28.0089 9.16704 27.9881 8.31236C27.9727 7.67273 27.9848 7.0331 27.9848 6.28704V6.28814ZM30.0408 5.42469C30.0408 4.53381 30.0441 3.64403 30.0397 2.75315C30.0375 2.23749 29.862 2.05098 29.3442 2.04878C27.58 2.0422 25.8147 2.04549 24.0505 2.04659C23.6752 2.04659 23.334 2.15301 23.3373 2.58748C23.3406 3.02085 23.6708 3.11521 24.0559 3.11082C24.9786 3.09985 25.9024 3.08778 26.824 3.12179C27.0445 3.12947 27.4022 3.27429 27.4428 3.4235C27.4966 3.62647 27.3583 3.93806 27.2058 4.12458C26.9524 4.43507 26.6265 4.68631 26.3248 4.95621C22.2138 8.64809 17.845 12.0174 13.2184 15.0269C9.37508 17.5262 5.4133 19.8444 1.4987 22.2329C1.17175 22.4326 0.915025 22.6575 1.13006 23.0382C1.3451 23.4211 1.67753 23.3311 2.00997 23.1358C2.6507 22.7595 3.30679 22.4117 3.94971 22.0387C12.5337 17.0676 20.7316 11.5577 28.0419 4.80371C28.1987 4.65888 28.552 4.55904 28.7155 4.63914C28.8866 4.72362 29.0227 5.04618 29.0304 5.27109C29.0644 6.2256 29.0534 7.18121 29.0413 8.13573C29.037 8.51643 29.1598 8.80937 29.5625 8.7962C29.9289 8.78414 30.0507 8.50217 30.0452 8.14231C30.0321 7.23607 30.0408 6.32873 30.0408 5.42249V5.42469Z" fill="white"/>
<path d="M30.5851 20.9508C30.5851 23.6695 30.5851 26.3894 30.5851 29.1081C30.5851 30.5387 30.0464 31.0818 28.6344 31.0829C28.1165 31.0829 27.5987 31.0851 27.0808 31.0829C26.0418 31.0774 25.389 30.4378 25.377 29.3878C25.3638 28.3357 25.3737 27.2835 25.3737 26.2314C25.3737 21.7638 25.3737 17.2962 25.3737 12.8298C25.3737 11.4573 25.9464 10.8824 27.3112 10.8813C27.8774 10.8813 28.4446 10.8736 29.0107 10.8835C29.8336 10.8977 30.4172 11.4057 30.5445 12.2143C30.5763 12.4206 30.584 12.6323 30.584 12.8419C30.5862 15.5452 30.5851 18.2475 30.5851 20.9508ZM29.5428 20.9706C29.5428 18.1871 29.5439 15.4048 29.5417 12.6213C29.5417 12.0947 29.376 11.929 28.8516 11.9225C28.3173 11.9159 27.7841 11.9192 27.2498 11.9214C26.5476 11.9235 26.4357 12.0355 26.4346 12.7365C26.4346 16.604 26.4346 20.4703 26.4346 24.3377C26.4346 26.0043 26.4324 27.6708 26.4357 29.3374C26.4368 29.8903 26.5739 30.0242 27.1225 30.0286C27.6722 30.033 28.2229 30.0308 28.7726 30.0286C29.4188 30.0264 29.5417 29.9068 29.5417 29.2705C29.5428 26.5035 29.5417 23.7365 29.5417 20.9695L29.5428 20.9706Z" fill="white"/>
<path d="M7.23817 14.4856C3.41353 14.5427 -0.0117396 11.3511 0.00691176 7.18855C0.024466 3.2158 3.28956 -0.0185711 7.30619 8.02635e-05C11.4369 0.0187317 14.5495 3.45937 14.5122 7.33118C14.4738 11.2282 11.189 14.5701 7.23817 14.4856ZM7.28315 1.05224C3.91054 0.966662 1.09308 3.84556 1.047 7.15454C1.00421 10.2375 3.37184 13.4445 7.23927 13.4642C10.7446 13.4818 13.4798 10.7718 13.4743 7.24889C13.4688 3.38367 10.2871 0.986411 7.28315 1.05334V1.05224Z" fill="white"/>
<path d="M19.17 22.8317C19.17 20.6802 19.1689 18.5287 19.17 16.3761C19.17 15.0793 19.7701 14.4879 21.0779 14.4868C21.5958 14.4868 22.1136 14.4824 22.6315 14.4868C23.7177 14.4978 24.3759 15.1561 24.377 16.2532C24.3803 20.6209 24.3814 24.9897 24.377 29.3575C24.3759 30.4338 23.7231 31.0778 22.6578 31.0822C22.0588 31.0844 21.4608 31.0855 20.8618 31.0822C19.8195 31.0767 19.1788 30.4436 19.1744 29.3827C19.1645 27.1983 19.1711 25.015 19.1711 22.8306L19.17 22.8317ZM20.2112 22.7768C20.2112 24.9601 20.2101 27.1434 20.2123 29.3268C20.2123 29.8731 20.3626 30.0256 20.8903 30.03C21.4883 30.0355 22.0873 30.0212 22.6852 30.0344C23.1449 30.0443 23.326 29.8183 23.326 29.3838C23.3238 24.9854 23.3249 20.5869 23.326 16.1874C23.326 15.7452 23.1098 15.5357 22.6699 15.539C22.1202 15.5434 21.5705 15.539 21.0209 15.5401C20.3527 15.5423 20.2134 15.6849 20.2123 16.3728C20.2123 18.5078 20.2123 20.6418 20.2123 22.7768H20.2112Z" fill="white"/>
<path d="M12.944 24.8622C12.944 23.4052 12.9418 21.9493 12.944 20.4922C12.9473 19.2503 13.5486 18.6534 14.7905 18.6523C15.3413 18.6523 15.891 18.6501 16.4417 18.6523C17.4807 18.6578 18.1423 19.2492 18.1489 20.2827C18.1697 23.3415 18.1708 26.4004 18.1478 29.4592C18.1401 30.4894 17.4719 31.0775 16.4319 31.0819C15.8657 31.0841 15.2985 31.083 14.7324 31.0819C13.5661 31.0797 12.9495 30.4631 12.9451 29.2793C12.9397 27.8069 12.944 26.3334 12.944 24.8611V24.8622ZM13.9995 24.8677C13.9995 26.3718 14.0039 27.876 13.9973 29.3802C13.9951 29.818 14.1695 30.0429 14.6303 30.0341C15.2447 30.0209 15.8591 30.0209 16.4735 30.0341C16.9354 30.044 17.1055 29.8158 17.1055 29.3791C17.1011 26.3707 17.1055 23.3624 17.1011 20.3551C17.1011 19.8537 16.9409 19.7034 16.4231 19.6979C15.8734 19.6913 15.3237 19.6935 14.773 19.6968C14.1279 19.7001 14.0006 19.8241 13.9995 20.4538C13.9973 21.9251 13.9995 23.3975 13.9995 24.8687V24.8677Z" fill="white"/>
<path d="M6.72646 26.6552C6.72646 25.7655 6.71988 24.8768 6.72756 23.987C6.73634 22.9304 7.40121 22.27 8.46104 22.259C9.04363 22.2535 9.62511 22.2535 10.2077 22.259C11.2588 22.27 11.9214 22.8997 11.9291 23.9387C11.9434 25.7655 11.9434 27.5933 11.9291 29.42C11.9214 30.4503 11.2741 31.0756 10.2549 31.0811C9.64047 31.0844 9.02607 31.0855 8.41167 31.0811C7.4012 31.0745 6.74292 30.4316 6.72865 29.4189C6.71658 28.4973 6.72646 27.5757 6.72646 26.6541V26.6552ZM10.8923 26.6849C10.8923 25.7797 10.8879 24.8757 10.8945 23.9705C10.8978 23.5306 10.6926 23.3101 10.2527 23.3101C9.63827 23.3101 9.02497 23.3101 8.41057 23.3101C7.99585 23.3101 7.77972 23.5141 7.77972 23.9321C7.77972 25.7578 7.77972 27.5834 7.77972 29.4091C7.77972 29.8194 7.96184 30.0388 8.39631 30.0322C8.99425 30.0224 9.5922 30.0322 10.189 30.029C10.7519 30.0257 10.8901 29.8819 10.8923 29.3026C10.8956 28.4304 10.8923 27.5582 10.8923 26.686V26.6849Z" fill="white"/>
<path d="M5.76554 28.2688C5.72605 28.814 5.73592 29.3692 5.63389 29.9024C5.49674 30.6221 4.91416 31.0632 4.17578 31.0796C3.46483 31.095 2.75279 31.0972 2.04185 31.0796C1.253 31.0599 0.623237 30.5431 0.569477 29.7521C0.502551 28.7559 0.503653 27.7498 0.560704 26.7525C0.60459 25.9955 1.12353 25.4754 1.91238 25.403C2.71219 25.3295 3.53176 25.3218 4.33048 25.4085C5.206 25.5029 5.7019 26.1568 5.72494 27.0553C5.73592 27.4591 5.72714 27.8639 5.72714 28.2677C5.74031 28.2677 5.75238 28.2699 5.76554 28.2699V28.2688ZM1.5591 28.2326C1.5591 28.6517 1.55032 29.0719 1.56239 29.491C1.57226 29.8333 1.75 30.0286 2.10657 30.0297C2.76815 30.0308 3.42973 30.0275 4.09131 30.0319C4.47421 30.0352 4.66072 29.8388 4.66291 29.4712C4.66949 28.6484 4.6684 27.8255 4.66291 27.0027C4.66072 26.634 4.46324 26.4322 4.0924 26.4278C3.44728 26.4212 2.80216 26.4223 2.15595 26.4278C1.76756 26.4311 1.558 26.6263 1.5569 27.0235C1.5569 27.4273 1.5569 27.8299 1.5569 28.2337L1.5591 28.2326Z" fill="white"/>
<path d="M6.69466 10.7497V7.73692C6.5641 7.68426 6.41928 7.6272 6.27556 7.56796C5.29252 7.15763 4.66934 6.23384 4.66715 5.18387C4.66495 4.13391 5.28593 3.22438 6.26019 2.78881C6.47194 2.69446 6.66614 2.51452 6.81096 2.32911C7.08415 1.97912 7.47034 1.99009 7.72269 2.35873C7.83569 2.5222 8.01124 2.678 8.19227 2.7537C9.17311 3.16513 9.81713 4.07685 9.8292 5.06648C9.83359 5.41756 9.69864 5.66661 9.3695 5.68965C9.04584 5.71269 8.86042 5.50204 8.82421 5.14547C8.76168 4.51681 8.47642 4.02529 7.77754 3.73674C7.77754 4.72856 7.76986 5.65674 7.78961 6.58602C7.7918 6.68037 7.93773 6.81313 8.04634 6.85591C9.22687 7.32878 9.82262 8.13738 9.8281 9.29596C9.83359 10.4918 9.26198 11.2818 8.04854 11.7865C7.92347 11.8391 7.81485 11.9763 7.74024 12.0992C7.47583 12.5347 7.06221 12.5347 6.78353 12.1156C6.6804 11.9609 6.50815 11.8227 6.337 11.7481C5.37809 11.3344 4.83062 10.6114 4.67922 9.58999C4.62655 9.23452 4.67373 8.87575 5.13453 8.83187C5.58765 8.78908 5.70175 9.11054 5.73467 9.48247C5.78733 10.0848 6.11099 10.4798 6.69466 10.7475V10.7497ZM7.77644 7.86748V10.7771C8.47642 10.4721 8.80447 9.97948 8.81434 9.34533C8.82422 8.68704 8.4863 8.18565 7.77644 7.86748ZM6.70344 3.77514C5.98372 4.08344 5.69736 4.56618 5.73467 5.3254C5.76319 5.90908 6.12964 6.37975 6.70344 6.5553V3.77514Z" fill="white"/>
</svg>
