<svg version="1.1" id="Layer_1" xmlns="http://www.w3.org/2000/svg" xmlns:xlink="http://www.w3.org/1999/xlink" x="0px" y="0px"
	 width="100%" viewBox="0 0 512 512" enable-background="new 0 0 512 512" xml:space="preserve">
<path fill="#000000" opacity="1.000000" stroke="none" 
	d="
M513.000000,144.000000 
	C513.000000,267.303345 513.000000,390.106689 513.000000,512.955017 
	C342.404968,512.955017 171.809952,512.955017 1.107457,512.955017 
	C1.107457,342.446686 1.107457,171.893280 1.107457,1.169941 
	C171.666519,1.169941 342.333252,1.169941 513.000000,1.169941 
	C513.000000,48.523350 513.000000,96.011673 513.000000,144.000000 
M379.029083,16.082914 
	C377.697205,16.054798 376.365356,16.002125 375.033478,16.002071 
	C280.910645,15.998293 186.787842,15.988584 92.665024,16.006495 
	C71.323654,16.010555 57.066624,30.368135 57.062103,51.865726 
	C57.042862,143.323120 57.053398,234.780502 57.053074,326.237885 
	C57.053066,328.007629 57.053078,329.777374 57.053078,332.026428 
	C59.692543,332.026428 61.658054,332.026428 63.623562,332.026428 
	C172.406219,332.026428 281.188873,332.027344 389.971527,332.019348 
	C391.967834,332.019196 393.964111,331.912842 396.898407,331.973206 
	C416.802582,331.973206 436.706757,331.973206 456.960632,331.973206 
	C456.960632,313.489960 457.180450,295.844574 456.841888,278.209930 
	C456.722687,272.001343 458.301819,267.796051 465.020721,266.472321 
	C465.020721,260.785736 465.088470,255.303665 464.955566,249.826462 
	C464.932831,248.890228 464.225128,247.333313 463.541870,247.149704 
	C457.206024,245.446945 456.911133,240.692810 456.916931,235.361481 
	C456.983795,173.717667 456.992462,112.073723 456.934387,50.429890 
	C456.917297,32.284180 443.196045,16.781401 425.914795,16.171959 
	C410.613220,15.632334 395.273956,16.160973 379.029083,16.082914 
M446.018280,347.109711 
	C445.352844,347.082153 444.687378,347.030487 444.021942,347.030457 
	C306.080536,347.026062 168.139160,347.020294 30.197765,347.035706 
	C21.004389,347.036713 16.017689,352.043610 16.011467,361.255615 
	C15.984462,401.238617 15.998682,441.221649 15.999715,481.204651 
	C16.000040,493.827362 20.131104,497.999908 32.632572,498.000000 
	C168.574814,498.000916 304.517059,498.001648 440.459290,497.991241 
	C442.620697,497.991058 444.782104,497.849792 447.878143,497.937164 
	C460.033600,497.957886 472.189301,498.031769 484.344482,497.981110 
	C492.827301,497.945740 497.928497,492.772552 497.986450,484.226318 
	C498.046326,475.401184 498.000824,466.575317 498.000763,457.749786 
	C498.000610,425.444977 498.020294,393.140106 497.985474,360.835358 
	C497.976898,352.883728 493.182251,347.198761 485.885040,347.102814 
	C472.905396,346.932129 459.920288,347.179840 446.018280,347.109711 
z"/>
<path fill="#025F80" opacity="1.000000" stroke="none" 
	d="
M446.943481,497.774353 
	C444.782104,497.849792 442.620697,497.991058 440.459290,497.991241 
	C304.517059,498.001648 168.574814,498.000916 32.632572,498.000000 
	C20.131104,497.999908 16.000040,493.827362 15.999715,481.204651 
	C15.998682,441.221649 15.984462,401.238617 16.011467,361.255615 
	C16.017689,352.043610 21.004389,347.036713 30.197765,347.035706 
	C168.139160,347.020294 306.080536,347.026062 444.021942,347.030457 
	C444.687378,347.030487 445.352844,347.082153 446.505219,347.545837 
	C447.983734,352.611755 448.975311,357.241547 449.503723,361.928314 
	C379.575226,361.998352 310.109924,362.015564 240.644608,362.023102 
	C179.674896,362.029724 118.705177,361.998688 57.735512,362.044861 
	C42.447750,362.056427 31.077047,373.316559 31.023218,388.460480 
	C30.942093,411.282196 30.922747,434.104797 31.032230,456.926239 
	C31.102406,471.554474 42.438148,482.931458 57.072529,482.964813 
	C97.718788,483.057404 138.365417,482.978424 179.011826,483.025543 
	C184.044601,483.031372 187.280212,480.999023 188.824585,475.965057 
	C195.504166,475.978149 201.739212,475.986603 208.132675,476.314270 
	C209.725601,482.035126 213.645950,483.055695 218.644516,483.050812 
	C293.587982,482.977600 368.531586,482.998932 443.475128,483.006439 
	C445.637787,483.006653 447.800415,483.099182 449.975037,483.578033 
	C448.972504,488.596375 447.958008,493.185333 446.943481,497.774353 
z"/>
<path fill="#025F7F" opacity="1.000000" stroke="none" 
	d="
M395.960419,331.856049 
	C393.964111,331.912842 391.967834,332.019196 389.971527,332.019348 
	C281.188873,332.027344 172.406219,332.026428 63.623562,332.026428 
	C61.658054,332.026428 59.692543,332.026428 57.053078,332.026428 
	C57.053078,329.777374 57.053066,328.007629 57.053074,326.237885 
	C57.053398,234.780502 57.042862,143.323120 57.062103,51.865726 
	C57.066624,30.368135 71.323654,16.010555 92.665024,16.006495 
	C186.787842,15.988584 280.910645,15.998293 375.033478,16.002071 
	C376.365356,16.002125 377.697205,16.054798 379.557190,16.474869 
	C380.723572,17.580700 381.450104,18.234343 381.985199,19.018600 
	C384.675354,22.961271 387.315460,26.938055 389.507782,30.938477 
	C296.100891,30.982363 203.159409,30.977701 110.217926,31.009165 
	C90.262253,31.015919 75.249397,43.505817 72.455139,63.061180 
	C71.474419,69.924637 72.067993,77.023445 72.076141,84.014633 
	C72.083183,90.053818 74.034248,92.264442 79.939362,93.882584 
	C79.916504,100.718216 79.977325,107.119766 79.668808,113.640244 
	C73.678360,115.001442 72.060783,117.175308 72.059563,123.733459 
	C72.049927,175.731628 72.051231,227.729797 72.075638,279.727966 
	C72.076576,281.716064 72.158455,283.739166 72.520981,285.686676 
	C76.157539,305.222504 90.372261,317.004181 110.473740,317.010651 
	C203.470459,317.040649 296.467194,317.024231 389.463928,317.033600 
	C391.627472,317.033813 393.790985,317.141418 395.965454,317.652100 
	C395.971100,322.688843 395.965759,327.272461 395.960419,331.856049 
z"/>
<path fill="#024B66" opacity="1.000000" stroke="none" 
	d="
M389.973175,30.902851 
	C387.315460,26.938055 384.675354,22.961271 381.985199,19.018600 
	C381.450104,18.234343 380.723572,17.580700 380.018341,16.542412 
	C395.273956,16.160973 410.613220,15.632334 425.914795,16.171959 
	C443.196045,16.781401 456.917297,32.284180 456.934387,50.429890 
	C456.992462,112.073723 456.983795,173.717667 456.916931,235.361481 
	C456.911133,240.692810 457.206024,245.446945 463.541870,247.149704 
	C464.225128,247.333313 464.932831,248.890228 464.955566,249.826462 
	C465.088470,255.303665 465.020721,260.785736 465.020721,266.472321 
	C458.301819,267.796051 456.722687,272.001343 456.841888,278.209930 
	C457.180450,295.844574 456.960632,313.489960 456.960632,331.973206 
	C436.706757,331.973206 416.802582,331.973206 396.429413,331.914612 
	C395.965759,327.272461 395.971100,322.688843 396.432068,317.587280 
	C398.885498,317.051086 400.883209,317.021301 402.881012,317.016449 
	C426.589844,316.958893 441.933014,301.641052 441.954468,277.956360 
	C441.975922,254.312195 441.960205,230.668015 441.959717,207.023834 
	C441.958679,160.734528 442.006378,114.445129 441.930756,68.155937 
	C441.901001,49.958817 429.876556,34.965630 412.331879,31.986149 
	C405.028290,30.745836 397.434814,31.212421 389.973175,30.902851 
z"/>
<path fill="#024C67" opacity="1.000000" stroke="none" 
	d="
M447.410828,497.855743 
	C447.958008,493.185333 448.972504,488.596375 450.436798,483.524048 
	C452.550934,483.026947 454.215210,483.008026 455.879578,483.000183 
	C471.781555,482.925079 482.960083,471.852600 482.988617,456.028931 
	C483.029480,433.391510 483.045715,410.753754 482.974060,388.116455 
	C482.945129,378.975433 478.868652,371.909790 471.480804,366.580414 
	C464.952271,361.870941 457.469330,361.919739 449.966919,361.871307 
	C448.975311,357.241547 447.983734,352.611755 446.964813,347.617249 
	C459.920288,347.179840 472.905396,346.932129 485.885040,347.102814 
	C493.182251,347.198761 497.976898,352.883728 497.985474,360.835358 
	C498.020294,393.140106 498.000610,425.444977 498.000763,457.749786 
	C498.000824,466.575317 498.046326,475.401184 497.986450,484.226318 
	C497.928497,492.772552 492.827301,497.945740 484.344482,497.981110 
	C472.189301,498.031769 460.033600,497.957886 447.410828,497.855743 
z"/>
<path fill="#017297" opacity="1.000000" stroke="none" 
	d="
M207.974258,475.995056 
	C201.739212,475.986603 195.504166,475.978149 188.733612,475.588593 
	C186.754562,469.459015 184.776825,468.006836 178.152679,468.004974 
	C138.658249,467.993896 99.163811,468.006195 59.669376,467.994385 
	C50.117233,467.991547 46.012497,463.882263 46.005501,454.333008 
	C45.990242,433.502594 45.998432,412.672211 46.001614,391.841797 
	C46.003326,380.630920 49.651627,377.032288 61.023518,377.032166 
	C188.838852,377.030640 316.654175,377.030457 444.469513,377.038177 
	C446.299408,377.038300 448.129303,377.144714 449.970825,377.655365 
	C449.977234,408.019806 449.972046,437.930420 449.503876,467.901764 
	C372.189575,467.974915 295.338287,467.985107 218.486969,468.003418 
	C211.449234,468.005096 209.912476,469.198090 207.974258,475.995056 
M274.664246,396.742249 
	C262.334045,388.868500 248.289383,389.364807 237.513184,398.055115 
	C226.786285,406.705627 222.948868,420.662445 227.754013,433.549744 
	C232.386139,445.972992 244.760742,454.290222 258.008118,453.884125 
	C270.796356,453.492096 282.456970,444.822693 286.627747,432.606110 
	C291.078735,419.568604 286.950317,406.663391 274.664246,396.742249 
z"/>
<path fill="#000000" opacity="1.000000" stroke="none" 
	d="
M449.959198,377.201508 
	C448.129303,377.144714 446.299408,377.038300 444.469513,377.038177 
	C316.654175,377.030457 188.838852,377.030640 61.023518,377.032166 
	C49.651627,377.032288 46.003326,380.630920 46.001614,391.841797 
	C45.998432,412.672211 45.990242,433.502594 46.005501,454.333008 
	C46.012497,463.882263 50.117233,467.991547 59.669376,467.994385 
	C99.163811,468.006195 138.658249,467.993896 178.152679,468.004974 
	C184.776825,468.006836 186.754562,469.459015 188.289093,475.583954 
	C187.280212,480.999023 184.044601,483.031372 179.011826,483.025543 
	C138.365417,482.978424 97.718788,483.057404 57.072529,482.964813 
	C42.438148,482.931458 31.102406,471.554474 31.032230,456.926239 
	C30.922747,434.104797 30.942093,411.282196 31.023218,388.460480 
	C31.077047,373.316559 42.447750,362.056427 57.735512,362.044861 
	C118.705177,361.998688 179.674896,362.029724 240.644608,362.023102 
	C310.109924,362.015564 379.575226,361.998352 449.503723,361.928314 
	C457.469330,361.919739 464.952271,361.870941 471.480804,366.580414 
	C478.868652,371.909790 482.945129,378.975433 482.974060,388.116455 
	C483.045715,410.753754 483.029480,433.391510 482.988617,456.028931 
	C482.960083,471.852600 471.781555,482.925079 455.879578,483.000183 
	C454.215210,483.008026 452.550934,483.026947 450.424835,483.094696 
	C447.800415,483.099182 445.637787,483.006653 443.475128,483.006439 
	C368.531586,482.998932 293.587982,482.977600 218.644516,483.050812 
	C213.645950,483.055695 209.725601,482.035126 208.132675,476.314270 
	C209.912476,469.198090 211.449234,468.005096 218.486969,468.003418 
	C295.338287,467.985107 372.189575,467.974915 449.954590,467.960632 
	C453.033691,467.964111 455.208832,468.104767 457.362518,467.948883 
	C463.239380,467.523468 467.865295,463.188049 467.906647,457.288116 
	C468.068909,434.133209 468.071167,410.975891 467.913025,387.820923 
	C467.871094,381.680969 463.154694,377.370605 456.944611,377.065582 
	C454.623962,376.951599 452.288116,377.147095 449.959198,377.201508 
z"/>
<path fill="#C8EFFD" opacity="1.000000" stroke="none" 
	d="
M80.038147,113.521317 
	C79.977325,107.119766 79.916504,100.718216 80.323486,93.792145 
	C85.296234,92.360245 87.108521,89.418518 87.080605,85.029785 
	C87.050941,80.368118 87.073181,75.706093 87.075981,71.044228 
	C87.086052,54.296577 95.425087,46.001606 112.261795,46.001373 
	C204.999680,46.000092 297.737549,45.999783 390.475433,46.007851 
	C392.302795,46.008011 394.130157,46.114201 395.965332,46.628761 
	C395.969971,71.651787 395.966827,96.216988 395.504028,120.861649 
	C342.442505,120.948288 289.840637,120.954773 237.238770,120.965775 
	C235.574768,120.966125 233.870682,120.790863 232.254761,121.082481 
	C228.377426,121.782196 226.009521,124.082779 225.847183,128.172867 
	C225.684128,132.280945 227.928177,134.748764 231.706879,135.744781 
	C233.273529,136.157730 235.013702,135.959106 236.674988,135.959488 
	C274.961212,135.968384 313.247406,135.949966 351.533630,135.974594 
	C366.344177,135.984131 381.154633,136.086578 395.970947,136.606110 
	C395.971588,159.929916 395.966370,182.794327 395.503479,205.748901 
	C384.411652,205.848740 373.777100,205.804260 363.143555,205.891083 
	C357.874756,205.934082 354.901825,208.589752 354.761627,213.045135 
	C354.610992,217.831253 357.877167,220.803085 363.587738,220.867767 
	C374.381561,220.990082 385.176422,221.022461 395.974731,221.552933 
	C395.993469,226.110764 396.008331,230.207886 395.637756,234.450226 
	C394.420624,234.611877 393.588867,234.642502 392.757141,234.642609 
	C368.293365,234.646103 343.829559,234.616974 319.365906,234.669907 
	C313.796600,234.681961 310.618225,237.455704 310.559326,241.972290 
	C310.500092,246.513153 313.695404,249.443787 319.129486,249.661560 
	C322.120270,249.781433 325.119781,249.676147 328.115295,249.687912 
	C350.738464,249.776764 373.361633,249.869446 395.984192,250.432068 
	C395.977509,267.886841 395.971375,284.870483 395.504730,301.933472 
	C300.795959,302.020081 206.547699,302.029144 112.299446,302.033051 
	C95.231377,302.033752 87.076874,293.781616 87.076218,276.527679 
	C87.074295,225.573639 87.078827,174.619598 87.071510,123.665550 
	C87.070526,116.814209 85.917122,115.187378 80.038147,113.521317 
M169.162170,180.181229 
	C175.212570,182.405518 180.155060,185.842529 181.871475,192.475662 
	C184.987167,204.516327 176.294815,217.489822 163.878738,218.830429 
	C154.997375,219.789413 146.298950,219.075195 138.440720,213.861908 
	C133.258652,210.424011 128.740051,211.197800 126.310043,215.339554 
	C123.964928,219.336624 125.206795,223.754562 130.547241,226.357422 
	C137.728760,229.857620 145.317688,232.521927 153.331390,235.789536 
	C153.331390,237.571976 152.954697,240.463867 153.419754,243.213379 
	C154.115601,247.327255 156.926971,249.744034 161.155807,249.474625 
	C165.313660,249.209717 167.888367,246.739548 168.106491,242.404099 
	C168.255478,239.443115 168.135010,236.468567 168.135010,233.593185 
	C170.222443,232.948868 171.820633,232.515167 173.378006,231.965775 
	C191.356781,225.623474 201.826355,204.929260 195.990326,187.070923 
	C192.456894,176.258575 184.511963,169.987244 174.202911,166.004196 
	C166.169724,162.900452 158.161911,159.640106 150.447403,155.832291 
	C144.676407,152.983810 143.133270,147.430237 144.052048,141.340607 
	C144.967850,135.270813 148.239319,130.844925 154.297714,129.058105 
	C162.018616,126.780922 169.418854,127.476997 176.284088,132.015305 
	C181.443817,135.426163 185.894073,135.045212 188.460663,131.067535 
	C191.039856,127.070312 189.774597,122.540253 184.360947,119.484329 
	C179.358200,116.660339 173.893478,114.654732 168.390076,112.179802 
	C167.546799,101.320892 165.996735,98.098625 160.777527,98.591591 
	C150.906952,99.523888 153.831314,107.730637 152.954437,113.678406 
	C152.186600,113.915009 151.566833,114.103661 150.948486,114.296867 
	C137.997391,118.343414 130.534439,127.183609 129.058273,140.569092 
	C127.534027,154.390686 133.649658,164.558273 145.883087,170.671738 
	C153.134491,174.295486 160.889908,176.910690 169.162170,180.181229 
M352.467163,166.927872 
	C355.963013,166.889511 359.489288,167.125504 362.946899,166.742233 
	C367.122803,166.279358 370.060913,162.594864 369.540741,158.745224 
	C368.983154,154.618698 366.606720,152.152084 362.268951,151.938278 
	C361.271942,151.889145 360.270844,151.918137 359.271637,151.918121 
	C318.135101,151.917343 276.998535,151.917191 235.862000,151.918243 
	C234.862839,151.918274 233.858582,151.870224 232.865417,151.951294 
	C228.847168,152.279251 226.375427,154.430740 225.901367,158.444626 
	C225.394043,162.740021 227.578033,165.491409 231.603729,166.594025 
	C233.324310,167.065292 235.236267,166.915466 237.061310,166.916199 
	C275.200043,166.931442 313.338806,166.927795 352.467163,166.927872 
z"/>
<path fill="#000101" opacity="1.000000" stroke="none" 
	d="
M79.668808,113.640244 
	C85.917122,115.187378 87.070526,116.814209 87.071510,123.665550 
	C87.078827,174.619598 87.074295,225.573639 87.076218,276.527679 
	C87.076874,293.781616 95.231377,302.033752 112.299446,302.033051 
	C206.547699,302.029144 300.795959,302.020081 395.966125,302.016876 
	C397.886353,302.027100 398.891205,301.960815 399.882019,302.050110 
	C418.323029,303.712128 427.288513,291.694458 427.151672,274.879120 
	C426.610016,208.327103 426.515625,141.763977 427.179749,75.214180 
	C427.380402,55.108887 418.461334,43.609028 395.957520,46.170925 
	C394.130157,46.114201 392.302795,46.008011 390.475433,46.007851 
	C297.737549,45.999783 204.999680,46.000092 112.261795,46.001373 
	C95.425087,46.001606 87.086052,54.296577 87.075981,71.044228 
	C87.073181,75.706093 87.050941,80.368118 87.080605,85.029785 
	C87.108521,89.418518 85.296234,92.360245 80.407166,93.358055 
	C74.034248,92.264442 72.083183,90.053818 72.076141,84.014633 
	C72.067993,77.023445 71.474419,69.924637 72.455139,63.061180 
	C75.249397,43.505817 90.262253,31.015919 110.217926,31.009165 
	C203.159409,30.977701 296.100891,30.982363 389.507782,30.938475 
	C397.434814,31.212421 405.028290,30.745836 412.331879,31.986149 
	C429.876556,34.965630 441.901001,49.958817 441.930756,68.155937 
	C442.006378,114.445129 441.958679,160.734528 441.959717,207.023834 
	C441.960205,230.668015 441.975922,254.312195 441.954468,277.956360 
	C441.933014,301.641052 426.589844,316.958893 402.881012,317.016449 
	C400.883209,317.021301 398.885498,317.051086 396.421143,317.134094 
	C393.790985,317.141418 391.627472,317.033813 389.463928,317.033600 
	C296.467194,317.024231 203.470459,317.040649 110.473740,317.010651 
	C90.372261,317.004181 76.157539,305.222504 72.520981,285.686676 
	C72.158455,283.739166 72.076576,281.716064 72.075638,279.727966 
	C72.051231,227.729797 72.049927,175.731628 72.059563,123.733459 
	C72.060783,117.175308 73.678360,115.001442 79.668808,113.640244 
z"/>
<path fill="#010203" opacity="1.000000" stroke="none" 
	d="
M274.971069,396.934692 
	C286.950317,406.663391 291.078735,419.568604 286.627747,432.606110 
	C282.456970,444.822693 270.796356,453.492096 258.008118,453.884125 
	C244.760742,454.290222 232.386139,445.972992 227.754013,433.549744 
	C222.948868,420.662445 226.786285,406.705627 237.513184,398.055115 
	C248.289383,389.364807 262.334045,388.868500 274.971069,396.934692 
M244.532715,412.110077 
	C240.028519,418.532471 239.535446,425.432251 243.171600,431.156403 
	C246.766724,436.815948 253.651657,439.864838 259.905579,438.566772 
	C266.824066,437.130768 272.096954,431.782104 273.030914,425.252869 
	C274.064178,418.029419 270.805542,411.414734 264.582336,408.102966 
	C258.048828,404.626068 251.411926,405.794617 244.532715,412.110077 
z"/>
<path fill="#025F80" opacity="1.000000" stroke="none" 
	d="
M449.970825,377.655365 
	C452.288116,377.147095 454.623962,376.951599 456.944611,377.065582 
	C463.154694,377.370605 467.871094,381.680969 467.913025,387.820923 
	C468.071167,410.975891 468.068909,434.133209 467.906647,457.288116 
	C467.865295,463.188049 463.239380,467.523468 457.362518,467.948883 
	C455.208832,468.104767 453.033691,467.964111 450.417603,467.899872 
	C449.972046,437.930420 449.977234,408.019806 449.970825,377.655365 
z"/>
<path fill="#98E3F9" opacity="1.000000" stroke="none" 
	d="
M395.965332,46.628761 
	C418.461334,43.609028 427.380402,55.108887 427.179749,75.214180 
	C426.515625,141.763977 426.610016,208.327103 427.151672,274.879120 
	C427.288513,291.694458 418.323029,303.712128 399.882019,302.050110 
	C398.891205,301.960815 397.886353,302.027100 396.426636,301.937531 
	C395.971375,284.870483 395.977509,267.886841 396.409241,250.313995 
	C398.980103,249.667740 401.151306,249.801270 403.265167,249.513641 
	C407.601532,248.923630 410.145325,246.471344 410.136017,241.914230 
	C410.127594,237.771133 407.404480,235.086670 402.909576,234.705185 
	C400.619324,234.510818 398.318970,234.434616 396.023193,234.304993 
	C396.008331,230.207886 395.993469,226.110764 396.412231,221.458862 
	C398.993835,220.876190 401.162048,221.025940 403.285370,220.783020 
	C407.555206,220.294510 410.235535,217.184418 410.146912,213.118576 
	C410.057861,209.033401 407.283142,206.240280 402.881409,205.921844 
	C400.580353,205.755386 398.268280,205.741516 395.961182,205.658722 
	C395.966370,182.794327 395.971588,159.929916 396.412262,136.523071 
	C398.829224,135.969147 400.818695,136.067245 402.790588,135.924133 
	C407.328522,135.594788 410.240692,132.495575 410.144257,128.251297 
	C410.052979,124.234268 407.198242,121.333244 402.881989,121.011444 
	C400.582977,120.840042 398.270233,120.852631 395.963684,120.782181 
	C395.966827,96.216988 395.969971,71.651787 395.965332,46.628761 
z"/>
<path fill="#040405" opacity="1.000000" stroke="none" 
	d="
M168.790436,180.080322 
	C160.889908,176.910690 153.134491,174.295486 145.883087,170.671738 
	C133.649658,164.558273 127.534027,154.390686 129.058273,140.569092 
	C130.534439,127.183609 137.997391,118.343414 150.948486,114.296867 
	C151.566833,114.103661 152.186600,113.915009 152.954437,113.678406 
	C153.831314,107.730637 150.906952,99.523888 160.777527,98.591591 
	C165.996735,98.098625 167.546799,101.320892 168.390076,112.179802 
	C173.893478,114.654732 179.358200,116.660339 184.360947,119.484329 
	C189.774597,122.540253 191.039856,127.070312 188.460663,131.067535 
	C185.894073,135.045212 181.443817,135.426163 176.284088,132.015305 
	C169.418854,127.476997 162.018616,126.780922 154.297714,129.058105 
	C148.239319,130.844925 144.967850,135.270813 144.052048,141.340607 
	C143.133270,147.430237 144.676407,152.983810 150.447403,155.832291 
	C158.161911,159.640106 166.169724,162.900452 174.202911,166.004196 
	C184.511963,169.987244 192.456894,176.258575 195.990326,187.070923 
	C201.826355,204.929260 191.356781,225.623474 173.378006,231.965775 
	C171.820633,232.515167 170.222443,232.948868 168.135010,233.593185 
	C168.135010,236.468567 168.255478,239.443115 168.106491,242.404099 
	C167.888367,246.739548 165.313660,249.209717 161.155807,249.474625 
	C156.926971,249.744034 154.115601,247.327255 153.419754,243.213379 
	C152.954697,240.463867 153.331390,237.571976 153.331390,235.789536 
	C145.317688,232.521927 137.728760,229.857620 130.547241,226.357422 
	C125.206795,223.754562 123.964928,219.336624 126.310043,215.339554 
	C128.740051,211.197800 133.258652,210.424011 138.440720,213.861908 
	C146.298950,219.075195 154.997375,219.789413 163.878738,218.830429 
	C176.294815,217.489822 184.987167,204.516327 181.871475,192.475662 
	C180.155060,185.842529 175.212570,182.405518 168.790436,180.080322 
z"/>
<path fill="#010101" opacity="1.000000" stroke="none" 
	d="
M395.504028,120.861649 
	C398.270233,120.852631 400.582977,120.840042 402.881989,121.011444 
	C407.198242,121.333244 410.052979,124.234268 410.144257,128.251297 
	C410.240692,132.495575 407.328522,135.594788 402.790588,135.924133 
	C400.818695,136.067245 398.829224,135.969147 396.406433,136.063660 
	C381.154633,136.086578 366.344177,135.984131 351.533630,135.974594 
	C313.247406,135.949966 274.961212,135.968384 236.674988,135.959488 
	C235.013702,135.959106 233.273529,136.157730 231.706879,135.744781 
	C227.928177,134.748764 225.684128,132.280945 225.847183,128.172867 
	C226.009521,124.082779 228.377426,121.782196 232.254761,121.082481 
	C233.870682,120.790863 235.574768,120.966125 237.238770,120.965775 
	C289.840637,120.954773 342.442505,120.948288 395.504028,120.861649 
z"/>
<path fill="#020303" opacity="1.000000" stroke="none" 
	d="
M351.972351,166.927872 
	C313.338806,166.927795 275.200043,166.931442 237.061310,166.916199 
	C235.236267,166.915466 233.324310,167.065292 231.603729,166.594025 
	C227.578033,165.491409 225.394043,162.740021 225.901367,158.444626 
	C226.375427,154.430740 228.847168,152.279251 232.865417,151.951294 
	C233.858582,151.870224 234.862839,151.918274 235.862000,151.918243 
	C276.998535,151.917191 318.135101,151.917343 359.271637,151.918121 
	C360.270844,151.918137 361.271942,151.889145 362.268951,151.938278 
	C366.606720,152.152084 368.983154,154.618698 369.540741,158.745224 
	C370.060913,162.594864 367.122803,166.279358 362.946899,166.742233 
	C359.489288,167.125504 355.963013,166.889511 351.972351,166.927872 
z"/>
<path fill="#050607" opacity="1.000000" stroke="none" 
	d="
M395.637756,234.450226 
	C398.318970,234.434616 400.619324,234.510818 402.909576,234.705185 
	C407.404480,235.086670 410.127594,237.771133 410.136017,241.914230 
	C410.145325,246.471344 407.601532,248.923630 403.265167,249.513641 
	C401.151306,249.801270 398.980103,249.667740 396.409851,249.842896 
	C373.361633,249.869446 350.738464,249.776764 328.115295,249.687912 
	C325.119781,249.676147 322.120270,249.781433 319.129486,249.661560 
	C313.695404,249.443787 310.500092,246.513153 310.559326,241.972290 
	C310.618225,237.455704 313.796600,234.681961 319.365906,234.669907 
	C343.829559,234.616974 368.293365,234.646103 392.757141,234.642609 
	C393.588867,234.642502 394.420624,234.611877 395.637756,234.450226 
z"/>
<path fill="#030404" opacity="1.000000" stroke="none" 
	d="
M395.503479,205.748901 
	C398.268280,205.741516 400.580353,205.755386 402.881409,205.921844 
	C407.283142,206.240280 410.057861,209.033401 410.146912,213.118576 
	C410.235535,217.184418 407.555206,220.294510 403.285370,220.783020 
	C401.162048,221.025940 398.993835,220.876190 396.408386,220.998138 
	C385.176422,221.022461 374.381561,220.990082 363.587738,220.867767 
	C357.877167,220.803085 354.610992,217.831253 354.761627,213.045135 
	C354.901825,208.589752 357.874756,205.934082 363.143555,205.891083 
	C373.777100,205.804260 384.411652,205.848740 395.503479,205.748901 
z"/>
<path fill="#F5EFED" opacity="1.000000" stroke="none" 
	d="
M244.775238,411.828857 
	C251.411926,405.794617 258.048828,404.626068 264.582336,408.102966 
	C270.805542,411.414734 274.064178,418.029419 273.030914,425.252869 
	C272.096954,431.782104 266.824066,437.130768 259.905579,438.566772 
	C253.651657,439.864838 246.766724,436.815948 243.171600,431.156403 
	C239.535446,425.432251 240.028519,418.532471 244.775238,411.828857 
z"/>
</svg>