<svg width="21" height="24" viewBox="0 0 21 24" fill="none" xmlns="http://www.w3.org/2000/svg">
<path d="M3.11925 1.55953C3.31805 0.290996 3.59529 -0.040045 4.38596 0.00372896C5.08543 0.0429431 5.35719 0.431437 5.42103 1.52031H15.4425C15.6231 1.07072 15.7316 0.629332 15.9715 0.278228C16.0918 0.101308 16.4502 0.0265279 16.7056 0.0137605C17.4497 -0.0227178 17.6805 0.294643 17.8802 1.55862C18.3061 1.55862 18.742 1.55406 19.1779 1.55862C20.2932 1.57138 20.9973 2.27177 20.9973 3.39074C21.0009 9.43975 21.0009 15.4888 20.9973 21.5369C20.9973 22.6513 20.2878 23.3471 19.1633 23.3471C13.3879 23.3498 7.61246 23.3498 1.83795 23.3471C0.71259 23.3471 0.00491137 22.6504 0.00399941 21.536C-0.00147233 15.4897 -0.000560374 9.44067 0.0021755 3.39165C0.0021755 2.27359 0.707119 1.57321 1.82244 1.56044C2.24742 1.55588 2.67148 1.56044 3.11925 1.56044V1.55953ZM0.685232 6.46039C1.83886 6.46039 2.93138 6.45583 4.02391 6.46313C4.29385 6.46495 4.6942 6.35734 4.69876 6.78322C4.70423 7.24832 4.2829 7.12429 4.00202 7.12703C3.05997 7.13706 2.11792 7.12977 1.17495 7.1325C1.01536 7.1325 0.855768 7.14801 0.715326 7.15439C0.691615 7.24102 0.677024 7.27021 0.677024 7.29939C0.674288 11.6002 0.668817 15.9019 0.677024 20.2027C0.677936 20.8939 1.09652 21.2897 1.80968 21.2906C6.17157 21.297 10.5335 21.297 14.8954 21.2906C15.5082 21.2906 15.7818 20.9988 15.7872 20.3896C15.7936 19.6756 15.779 18.9606 15.7918 18.2465C15.8082 17.392 16.4119 16.792 17.2664 16.7755C17.9194 16.7628 18.5733 16.7728 19.2272 16.7719C20.0716 16.771 20.3242 16.5248 20.3252 15.6949C20.327 13.0046 20.3252 10.3143 20.3252 7.62496C20.3252 7.47722 20.3106 7.32948 20.3005 7.13068H19.7388C15.1945 7.13068 10.6502 7.13159 6.10591 7.12794C5.83414 7.12794 5.43379 7.22826 5.4265 6.80876C5.41829 6.34822 5.84053 6.46313 6.12232 6.46221C10.6666 6.45765 15.2109 6.45857 19.7552 6.45857H20.3124C20.3124 5.31771 20.3407 4.24068 20.3005 3.16731C20.2796 2.61375 19.8564 2.27542 19.2846 2.26265C18.6006 2.24714 17.9167 2.25718 17.2327 2.25718C16.9217 2.25718 16.6107 2.25718 16.2697 2.25718C16.2697 2.45963 16.2697 2.5791 16.2697 2.69856C16.2688 3.11806 16.1712 3.58043 16.7968 3.67892C16.8679 3.68986 16.9828 3.93609 16.9463 4.00449C16.8816 4.12669 16.7257 4.26257 16.5943 4.27807C16.1028 4.33553 15.6286 3.85675 15.6021 3.30046C15.5866 2.97033 15.5994 2.63929 15.5994 2.30004H3.84881C3.84881 2.46328 3.84881 2.58275 3.84881 2.70312C3.84881 3.12171 3.74759 3.5859 4.37684 3.68074C4.44615 3.69169 4.56105 3.93974 4.52366 4.00722C4.45709 4.12943 4.30023 4.26257 4.168 4.27716C3.69378 4.33006 3.2223 3.87316 3.18673 3.33967C3.16393 2.99586 3.18217 2.64932 3.18217 2.30642C3.06088 2.2818 3.00252 2.26082 2.94415 2.26082C2.51827 2.259 2.09238 2.24623 1.66741 2.26538C1.12936 2.28909 0.715326 2.63017 0.696175 3.16731C0.657873 4.2416 0.685232 5.31771 0.685232 6.45948V6.46039ZM20.3051 17.9921C20.1418 18.1417 20.0315 18.2356 19.9294 18.3368C18.9408 19.3236 17.9431 20.303 16.9701 21.3043C16.505 21.7831 15.9742 21.991 15.3066 21.9892C11.0551 21.9755 6.80264 21.9874 2.5511 21.9764C1.94465 21.9746 1.33819 21.8916 0.718974 21.846C0.718974 21.7922 0.709855 21.8369 0.719886 21.8761C0.863975 22.4333 1.22693 22.6622 1.98112 22.6622C7.6608 22.6631 13.3396 22.6622 19.0192 22.6622C19.1405 22.6622 19.2627 22.6622 19.3831 22.6485C19.8838 22.592 20.2768 22.2829 20.2932 21.7849C20.3324 20.5483 20.306 19.3108 20.306 17.9912L20.3051 17.9921ZM19.7369 17.4467C18.9244 17.4467 18.1365 17.4376 17.3485 17.4504C16.8597 17.4577 16.5232 17.6957 16.5077 18.1097C16.4749 18.977 16.4977 19.8461 16.4977 20.6851C17.5692 19.6136 18.6389 18.5438 19.7369 17.4467ZM4.7936 1.53399C4.70696 1.24308 4.68143 0.969492 4.54281 0.777069C4.47989 0.690433 4.08957 0.694081 4.02664 0.783453C3.88985 0.976788 3.86705 1.25129 3.78589 1.53491H4.7936V1.53399ZM17.2373 1.53582C17.1315 1.22666 17.095 0.953989 16.9491 0.766126C16.8843 0.682225 16.494 0.703201 16.4338 0.795308C16.3052 0.992291 16.2961 1.26679 16.2259 1.55953C16.4712 1.55953 16.6044 1.56135 16.7375 1.55953C16.8552 1.55679 16.9728 1.5495 17.2363 1.53673L17.2373 1.53582Z" fill="#27255C"/>
<path d="M5.01739 10.0205C5.01739 11.4422 4.98091 11.4787 3.57467 11.4787C2.04076 11.4787 2.03711 11.475 2.03711 9.93108C2.03711 8.54034 2.07997 8.49748 3.45976 8.49748C3.71785 8.49748 3.97502 8.4911 4.2331 8.49931C4.7593 8.51755 5.00097 8.76286 5.01647 9.29271C5.02377 9.53529 5.01739 9.77787 5.0183 10.0205H5.01739ZM2.7612 10.7418H4.28417V9.22705H2.7612V10.7418Z" fill="#27255C"/>
<path d="M18.9607 9.99268C18.9607 11.4482 18.9307 11.4783 17.498 11.4783C15.9914 11.4783 15.9805 11.4664 15.9805 9.95803C15.9805 8.5299 16.0133 8.49707 17.4186 8.49707C17.4341 8.49707 17.4487 8.49707 17.4642 8.49707C18.9398 8.49707 18.9607 8.51805 18.9607 9.99268ZM16.7091 9.21387V10.7378H18.2257V9.21387H16.7091Z" fill="#27255C"/>
<path d="M8.1738 11.4779C6.70555 11.4779 6.68457 11.4569 6.68457 9.97317C6.68457 8.52133 6.71011 8.49671 8.15465 8.49671C8.41273 8.49671 8.67081 8.48668 8.92799 8.50036C9.39947 8.52407 9.64843 8.77303 9.66211 9.24908C9.6767 9.71873 9.67214 10.1893 9.66394 10.659C9.6539 11.2162 9.4095 11.4597 8.85685 11.477C8.62978 11.4843 8.40179 11.4779 8.17471 11.4779H8.1738ZM8.93711 10.762V9.23722H7.41961V10.762H8.93711Z" fill="#27255C"/>
<path d="M12.8401 8.4978C14.2874 8.4978 14.3139 8.52425 14.3139 9.97061C14.3139 10.1375 14.3139 10.3044 14.3139 10.4713C14.312 11.2711 14.1114 11.4772 13.3289 11.479C12.9195 11.4799 12.51 11.489 12.1015 11.4753C11.6008 11.4589 11.3509 11.209 11.3372 10.7084C11.3245 10.2542 11.329 9.79916 11.3354 9.34409C11.3436 8.73673 11.5844 8.50692 12.2045 8.4978C12.417 8.49506 12.6286 8.4978 12.841 8.4978H12.8401ZM12.0577 10.7421H13.5806V9.22736H12.0577V10.7421Z" fill="#27255C"/>
<path d="M5.01814 18.5048C5.01814 19.9028 4.98896 19.932 3.59549 19.9311C3.32281 19.9311 3.04922 19.9402 2.77746 19.9265C2.29777 19.9028 2.05975 19.6684 2.04333 19.1824C2.02692 18.6981 2.02783 18.212 2.04242 17.7278C2.05884 17.2016 2.30871 16.9727 2.8495 16.9654C3.30366 16.9599 3.75873 16.959 4.21288 16.9654C4.76735 16.9736 5.00446 17.2144 5.01723 17.777C5.0227 18.0196 5.01814 18.2622 5.01814 18.5048ZM4.27763 19.228V17.6749H2.76834V19.228H4.27763Z" fill="#27255C"/>
<path d="M8.19751 16.9648C9.64661 16.9648 9.66576 16.984 9.66576 18.434C9.66576 19.884 9.66576 19.9314 8.13094 19.9314C6.70737 19.9314 6.68457 19.9086 6.68457 18.4805C6.68457 17.4725 7.18888 16.9673 8.19751 16.9648ZM7.42052 17.6771V19.2146H8.93528V17.6771H7.42052Z" fill="#27255C"/>
<path d="M17.4652 12.8443C18.4623 12.8443 18.9608 13.338 18.9608 14.3254C18.9608 15.79 18.9554 15.7954 17.4971 15.7945C17.2245 15.7945 16.9518 15.8036 16.6791 15.7909C16.235 15.7699 15.9988 15.5273 15.9842 15.0622C15.9696 14.5935 15.9742 14.1229 15.9815 13.6533C15.9906 13.0869 16.2222 12.8562 16.7831 12.8443C17.0102 12.8398 17.2372 12.8443 17.4643 12.8434L17.4652 12.8443ZM18.2276 15.1033V13.5438H16.7147V15.1033H18.2276Z" fill="#27255C"/>
<path d="M8.13178 15.6949C6.70457 15.6949 6.68359 15.6748 6.68359 14.2549C6.68359 13.2445 7.1873 12.7393 8.19471 12.7393C9.17476 12.7393 9.66478 13.2278 9.66478 14.2048C9.66478 15.1988 9.16898 15.6958 8.17738 15.6958H8.13178V15.6949ZM8.94525 13.4442H7.42046V14.9872H8.94525V13.4442Z" fill="#27255C"/>
<path d="M12.8366 15.6947C12.6241 15.6947 12.4125 15.6965 12.2 15.6947C11.5754 15.6901 11.3428 15.4685 11.3346 14.8566C11.3282 14.4171 11.3264 13.9775 11.3346 13.5388C11.3455 12.9953 11.5744 12.7564 12.1052 12.7436C12.5894 12.7318 13.0746 12.7308 13.5598 12.7436C14.0641 12.7573 14.2975 12.998 14.3112 13.5124C14.3231 13.9665 14.3203 14.4216 14.3121 14.8758C14.3021 15.4622 14.0659 15.6883 13.4722 15.6947C13.2597 15.6974 13.0482 15.6947 12.8357 15.6947H12.8366ZM13.588 13.4385H12.0632V14.9925H13.588V13.4385Z" fill="#27255C"/>
<path d="M3.50992 15.6949C2.04532 15.6949 2.03711 15.6876 2.03711 14.234C2.03711 13.2387 2.53291 12.7405 3.52451 12.7393C4.51611 12.738 5.01404 13.2335 5.0183 14.2258C5.0183 15.2052 4.51551 15.6949 3.50992 15.6949ZM4.29694 13.4451H2.77488V14.9845H4.29694V13.4451Z" fill="#27255C"/>
<path d="M13.5878 19.2451V17.6866H12.0694C12.0502 17.8462 12.0666 18.0231 12.001 18.1608C11.9463 18.2748 11.7958 18.4107 11.6864 18.4116C11.5769 18.4125 11.4055 18.2821 11.3635 18.1708C11.1173 17.5179 11.504 16.9707 12.1952 16.9652C12.6503 16.9616 13.1054 16.957 13.5595 16.967C14.0392 16.978 14.2918 17.2169 14.3092 17.6939C14.3265 18.1936 14.3256 18.6943 14.3092 19.194C14.2936 19.6692 14.0456 19.9108 13.5623 19.9254C13.0625 19.94 12.5618 19.9327 12.0612 19.9263C11.6782 19.9218 11.421 19.7312 11.3571 19.3518C11.3389 19.2424 11.4082 19.0664 11.4958 19.0043C11.5824 18.9432 11.8232 18.9396 11.8587 18.997C12.0922 19.3691 12.4478 19.2223 12.7588 19.2405C13.0269 19.257 13.2969 19.2442 13.5878 19.2442V19.2451Z" fill="#27255C"/>
</svg>
