<svg width="22" height="30" viewBox="0 0 22 30" fill="none" xmlns="http://www.w3.org/2000/svg">
<path d="M20.9476 8.26332C20.3193 8.26332 19.7494 8.26332 19.1796 8.26332C18.0645 8.26178 16.9487 8.27487 15.8336 8.25254C14.7301 8.23021 13.816 7.29766 13.7929 6.18799C13.7768 5.40021 13.7899 4.61243 13.7899 3.77383C13.5966 3.76151 13.4341 3.74226 13.2716 3.74226C10.2198 3.74072 7.16728 3.74996 4.11551 3.73071C3.66502 3.72763 3.51486 3.857 3.55259 4.30287C3.58955 4.73333 3.59417 5.17304 3.55182 5.60274C3.50485 6.0771 3.70506 6.16489 4.13245 6.16104C6.17698 6.14179 8.22227 6.15257 10.2676 6.15257C10.8721 6.15257 11.4758 6.14872 12.0803 6.15488C12.3845 6.15796 12.7025 6.1749 12.6902 6.60383C12.6794 6.98886 12.3983 7.02967 12.1003 7.02967C9.34272 7.02967 6.58511 7.03352 3.8275 7.02736C3.09363 7.02582 2.71399 6.64926 2.69397 5.90768C2.67702 5.27315 2.67779 4.63707 2.69397 4.00254C2.71245 3.23093 3.11057 2.85976 3.89912 2.85899C7.01327 2.85745 10.1274 2.85822 13.2408 2.85822C13.4071 2.85822 13.5735 2.85822 13.7652 2.85822V1.10709H13.2508C9.67231 1.10709 6.09304 1.10709 2.51454 1.10709C1.35713 1.10709 0.872758 1.58838 0.872758 2.73424C0.872758 11.0071 0.872758 19.2799 0.872758 27.5519C0.872758 28.6447 1.36791 29.1475 2.45293 29.1483C8.09213 29.1498 13.7313 29.1498 19.3705 29.1483C20.4548 29.1483 20.9499 28.6439 20.9507 27.5519C20.9507 24.7635 20.9507 21.9751 20.9507 19.1867C20.9507 19.0473 20.903 18.8702 20.97 18.777C21.0824 18.6215 21.261 18.4405 21.4274 18.4243C21.5413 18.4128 21.7069 18.6461 21.8001 18.8001C21.8555 18.8925 21.8193 19.0419 21.8193 19.1659C21.8193 21.9697 21.8224 24.7743 21.8193 27.5781C21.817 29.1483 20.9507 30 19.3682 30C13.7136 30 8.05902 30 2.40442 30C0.887389 30 0.0064328 29.1321 0.00566273 27.6189C-0.00126787 19.2999 -0.000497804 10.9809 0.00104233 2.66185C0.0018124 1.11787 0.875068 0.256935 2.42213 0.256935C6.24859 0.256165 10.0751 0.260015 13.9015 0.250004C14.2542 0.249234 14.5068 0.348573 14.7578 0.601925C16.9941 2.85514 19.2481 5.09064 21.479 7.35002C21.6607 7.53407 21.8001 7.85133 21.8024 8.10777C21.8255 10.9116 21.817 13.7154 21.8163 16.52C21.8163 16.6286 21.8486 16.7649 21.7962 16.8388C21.6931 16.9859 21.5437 17.1961 21.4089 17.1992C21.2618 17.2023 21.077 17.0251 20.973 16.8804C20.9053 16.7872 20.9484 16.6108 20.9484 16.4715C20.9476 13.8994 20.9484 11.3282 20.9484 8.75616C20.9484 8.61755 20.9484 8.47894 20.9484 8.26409L20.9476 8.26332ZM20.1036 7.41624C18.2986 5.60428 16.4766 3.77537 14.6947 1.98727C14.6947 3.36492 14.6654 4.83113 14.7078 6.29503C14.7263 6.93726 15.2745 7.37928 15.9176 7.41393C16.1178 7.42472 16.3195 7.41624 16.5205 7.41624C17.7519 7.41624 18.9832 7.41624 20.1029 7.41624H20.1036Z" fill="white"/>
<path d="M5.09245 15.6776C5.603 15.6776 6.11278 15.6715 6.62334 15.6792C7.14082 15.6869 7.46887 15.951 7.48119 16.4485C7.50661 17.5296 7.50584 18.6124 7.4835 19.6943C7.47349 20.1817 7.14775 20.4798 6.63258 20.489C5.61224 20.5083 4.5919 20.509 3.57156 20.489C3.02867 20.479 2.70986 20.161 2.69831 19.6096C2.67752 18.59 2.67675 17.5689 2.69985 16.5493C2.71371 15.9556 3.02251 15.6853 3.60853 15.6784C4.10291 15.673 4.59806 15.6769 5.09245 15.6776ZM3.58389 19.5672H6.59562V16.5586H3.58312V19.5672H3.58389Z" fill="white"/>
<path d="M5.0721 27.0362C4.57618 27.0362 4.08026 27.0439 3.5851 27.0339C3.02989 27.0223 2.72263 26.7713 2.708 26.2291C2.67951 25.1772 2.68028 24.123 2.70492 23.0703C2.71801 22.5305 3.04221 22.2333 3.61206 22.2202C4.60313 22.1986 5.59498 22.1963 6.58605 22.2202C7.18748 22.2348 7.48703 22.5613 7.4955 23.1658C7.50859 24.1415 7.50859 25.1179 7.4955 26.0936C7.48703 26.7659 7.20057 27.0292 6.51213 27.0362C6.03161 27.0408 5.55185 27.0369 5.07133 27.0362H5.0721ZM6.61378 23.1481H3.60051V26.1637H6.61455V23.1481H6.61378Z" fill="white"/>
<path d="M5.0878 13.923C4.59342 13.923 4.09827 13.93 3.60388 13.9215C3.05637 13.9115 2.71677 13.6227 2.70444 13.079C2.6798 12.0287 2.68057 10.9775 2.70676 9.92716C2.71985 9.41122 3.05252 9.10781 3.57693 9.09934C4.5811 9.08317 5.58603 9.08394 6.59097 9.09857C7.16698 9.10704 7.48502 9.41969 7.49426 9.99185C7.51043 11.0114 7.5112 12.0318 7.49195 13.0521C7.48194 13.615 7.14619 13.9138 6.57172 13.9223C6.07734 13.9292 5.58295 13.9238 5.0878 13.9238V13.923ZM3.58386 13.0244H6.61869V9.99647H3.58386V13.0244Z" fill="white"/>
<path d="M14.0583 23.114C12.6822 23.114 11.3069 23.1102 9.93076 23.1163C9.59193 23.1179 9.26311 23.0678 9.26465 22.6612C9.26696 22.25 9.61272 22.2123 9.94077 22.2123C12.6922 22.2123 15.4444 22.2123 18.1959 22.2123C18.2421 22.2123 18.2891 22.2099 18.3353 22.213C18.6394 22.2361 18.9105 22.3339 18.8874 22.6943C18.8674 23.0139 18.6225 23.1148 18.3253 23.1132C17.6299 23.1102 16.9337 23.1132 16.2384 23.1132C15.5114 23.1132 14.7853 23.1132 14.0583 23.1132V23.114Z" fill="white"/>
<path d="M14.0564 18.2887C12.6649 18.2887 11.2734 18.3018 9.88262 18.2748C9.67932 18.271 9.4791 18.0792 9.27734 17.9745C9.37591 17.7951 9.43906 17.5717 9.58614 17.4516C9.69318 17.3646 9.91188 17.4039 10.0805 17.4039C12.7396 17.4015 15.3986 17.4023 18.0576 17.4023C18.1501 17.4023 18.2432 17.4008 18.3356 17.4039C18.6229 17.4123 18.8847 17.4909 18.887 17.8289C18.8893 18.1809 18.6421 18.2894 18.3233 18.2894C16.901 18.2871 15.4787 18.2887 14.0564 18.2887Z" fill="white"/>
<path d="M14.0702 11.6991C12.6764 11.6991 11.2826 11.6968 9.88875 11.7006C9.57148 11.7014 9.25267 11.6737 9.26191 11.2709C9.27116 10.8813 9.58072 10.8474 9.90261 10.8482C12.6903 10.8535 15.4779 10.8528 18.2655 10.8482C18.5867 10.8482 18.8916 10.8797 18.8893 11.2817C18.887 11.696 18.5605 11.6983 18.2517 11.6983C16.8579 11.6968 15.464 11.6975 14.0702 11.6975V11.6991Z" fill="white"/>
<path d="M14.0233 16.5299C12.6442 16.5299 11.2657 16.5268 9.88654 16.5322C9.56388 16.5329 9.25663 16.4883 9.26279 16.0932C9.26895 15.6951 9.58313 15.6743 9.90194 15.6743C12.6904 15.6789 15.4795 15.6789 18.2679 15.6743C18.5883 15.6743 18.8948 15.7013 18.8894 16.1063C18.884 16.5114 18.5667 16.5314 18.2525 16.5306C16.8426 16.5275 15.4326 16.5291 14.0233 16.5291V16.5299Z" fill="white"/>
<path d="M14.0668 9.09327C15.4445 9.09327 16.8221 9.09019 18.1998 9.09712C18.3638 9.09789 18.554 9.11176 18.6842 9.19415C18.7912 9.26192 18.8982 9.45444 18.8767 9.56764C18.8513 9.70317 18.7111 9.8541 18.581 9.92187C18.4555 9.98732 18.2791 9.96422 18.1251 9.96422C15.4314 9.96576 12.7377 9.9673 10.044 9.96345C9.71442 9.96345 9.26779 10.0389 9.26856 9.54453C9.26856 9.03321 9.7175 9.09404 10.0717 9.09404C11.4032 9.0925 12.7346 9.09404 14.0653 9.09404L14.0668 9.09327Z" fill="white"/>
<path d="M14.0573 24.8387C12.7259 24.8387 11.3944 24.8387 10.0638 24.8387C9.92437 24.8387 9.76035 24.8733 9.65254 24.8125C9.49853 24.7255 9.28599 24.5692 9.28137 24.4352C9.27598 24.2904 9.45694 24.1063 9.60172 24.0008C9.69566 23.9323 9.87047 23.9677 10.0091 23.9677C12.7182 23.9662 15.4273 23.967 18.1364 23.967C18.2295 23.967 18.3504 23.9308 18.4097 23.9754C18.5853 24.1087 18.7362 24.2742 18.8964 24.4275C18.7386 24.563 18.5938 24.7917 18.4205 24.8156C17.9947 24.8741 17.5565 24.8395 17.123 24.8395C16.1011 24.8402 15.0792 24.8395 14.0581 24.8395L14.0573 24.8387Z" fill="white"/>
</svg>
